<svg xmlns="http://www.w3.org/2000/svg" xmlns:xlink="http://www.w3.org/1999/xlink" viewBox="0 0 192.02 181.78"><defs><style>.cls-1{isolation:isolate;}.cls-2{fill:url(#Dégradé_sans_nom_5);}.cls-3{mix-blend-mode:color-dodge;}.cls-4{fill:#42063d;}.cls-5,.cls-6,.cls-7{fill:none;stroke-miterlimit:10;}.cls-5{stroke:url(#Dégradé_sans_nom_5-2);}.cls-6{stroke:url(#Dégradé_sans_nom_5-3);}.cls-7{stroke:url(#Dégradé_sans_nom_5-4);}</style><linearGradient id="Dégradé_sans_nom_5" x1="14.74" y1="8.15" x2="174.93" y2="178.79" gradientUnits="userSpaceOnUse"><stop offset="0" stop-color="#ff8bbb"/><stop offset="1" stop-color="#4b0a40"/></linearGradient><linearGradient id="Dégradé_sans_nom_5-2" x1="-76.63" y1="87.93" x2="102.26" y2="260.89" gradientTransform="translate(191.51 181.78) rotate(180)" xlink:href="#Dégradé_sans_nom_5"/><linearGradient id="Dégradé_sans_nom_5-3" x1="-70.75" y1="81.84" x2="108.14" y2="254.8" gradientTransform="translate(191.51 181.78) rotate(180)" xlink:href="#Dégradé_sans_nom_5"/><linearGradient id="Dégradé_sans_nom_5-4" x1="-78.43" y1="89.79" x2="100.46" y2="262.75" gradientTransform="translate(191.51 181.78) rotate(180)" xlink:href="#Dégradé_sans_nom_5"/></defs><title>carte B</title><g class="cls-1"><g id="Calque_2" data-name="Calque 2"><g id="Calque_1-2" data-name="Calque 1"><path class="cls-2" d="M186.19,176.4s4.9,1.08,4.09-10.76-2.45-36.58-1.64-43,0-16.14,0-16.14-1.63-6.46,0-8.61l-4.9,2.15,4.9-5.38s-1.63-12.91,0-16.14S185.38,72,185.38,72s2.45-4.3,1.63-12.91,0-21.52,0-21.52-.82-10.76,3.27-18.29S187,12.87,187,12.87s-1.63-7.54-4.9-7.54S176.39,1,170.68,1s-7.35,3.23-7.35,3.23V34.38c0,1.08-.82-28-1.64-29.05s-9-2.15-9-2.15S146.18,22.55,146.18,29s4.08-26.89,4.08-26.89S138.83,0,138.83,1s1.63,24.75,1.63,24.75L137.2,1S112.7,0,112.7,3.18s-1.64,18.29-1.64,18.29V3.18S96.36-2.2,95.55,1a53.82,53.82,0,0,1-1.64,5.38s-4.08-4.3-4.9-4.3a98.42,98.42,0,0,1-18.78,0,77.05,77.05,0,0,0-17.15,0s-18,2.15-21.23,1.07,0,8.61,0,8.61L27,2.11S13.07,0,11.43,2.11,4.08,49.45,4.08,49.45v31.2C4.08,85,0,95.71,0,105.39s1.63,71,1.63,71l4.09,1.08L9,181.78s-.41-1.61,11-.54c0,0,1.63-2.15,5.71-2.15,0,0,.82,2.15,4.9,2.15s22.05,0,22.87-1.07,2.45-2.16,4.9,0,9.8-4.31,12.25-3.23,5.72,5.38,11.43,1.07,9,0,9-1.07.81-3.23,1.63-6.46,0,10.76,5.72,10.76,8.16,1.08,8.16-1.07,0-3.23,3.27,0,11.43,1.07,13.06-3.23,9-1.08,9-1.08,4.08-3.23,5.71,0,4.09-1.07,7.35,1.08,7.35-5.38,15.52-3.23c0,0,1.63,8.61,4.9,7.53s0-4.3,6.53-3.23,10.62-42,10.62-47.34-4.08,44.12-4.08,45.19S186.19,176.4,186.19,176.4Z"/><g class="cls-3"><path class="cls-4" d="M27.38,3l4.47,8.82S29.29,4.2,31,3.21L29.8,2.43l-1.62-.36h0A7.77,7.77,0,0,0,27.38,3Z"/><path class="cls-5" d="M189.9,20.07c.12-.26.24-.5.38-.75a12.26,12.26,0,0,0,1-2.31l-4.73-1.75C186.91,18.53,188.17,19.7,189.9,20.07Z"/><path class="cls-6" d="M181.36,14.72c.53,1.76,1.07,3.52,1.6,5.28l-1.84-1.15c-1.07.54-2.64.8-3.1,1.7-.73,1.43-.78,3.27-1.1,4.95C183.06,24.3,184.94,20.9,181.36,14.72Z"/><path class="cls-7" d="M191.51,15.5c0-3.29-4.5-2.63-4.5-2.63a23,23,0,0,0-.75-2.55c-.2.61-.4,1.23-.6,1.83Z"/><path class="cls-4" d="M31.85,11.79,27.38,3c-2.68,3.48-3.56,9.68-9.62,6.25-1.79,6.57-3.5,12.84-5.24,19.24a14.64,14.64,0,0,0,6.05-11.08c.28-3.2,5.16-5.67,8.22-8.7.61,4.72,1.17,9.4,8.2,6.79l.88,1.72L29.64,27.63l-5.38-3.37c-.75,2.64-1.27,4.49-1.67,5.89,5.87,4.4,1.58,8,.52,10.66l6,7.67c-1.28-7.09-2.11-13.38,4.78-19,1,9.05,1.77,16.71,2.66,25.13l5.69.18c-.2,1.12-.43,2.39-.36,2L49.71,63c.08-.29.35-1.26.63-2.23,4.6,1.58.57,10.26,8.34,9.45-.61-1.38-1.09-2.47-1.65-3.72,5.64,0,6.52.71,8.49,6.79,1.37,4.22,6.15,8.42,8.47,7.07l-1.44-3,3.07.62-1.49-3.3,5.47-1.07c-.07,1.43-.58,4.86-.19,5,6.42,2.24,3.28,7.91,6.26,12,1-3.12-.88-7.71.53-9.41,3.81-4.63,4.36,3.55,7.7,3.47l-1.69-3.5,4.44.4-3.42-4.38,10.74.33c-2.68-7.21,2.11-4.87,5.53-5.22-.4,1.71-.68,2.9-1.13,4.87l3-1.32,0,.07,0-.07,0,.06c.93-1.86,1.87-3.71,3-5.9l-14,1.23,3.26-5.45-12.07,1,3.4-5.13L94.15,61l-6.73,6.66L80,62c-.23.25-.45.51-.68.77l5.51,7.88c-4.86,1.72-5.9-1.42-7.06-4.53s-2.52-6.33-3.78-9.48l-1.55.27c-.72,1.68-1.44,3.36-2.58,6C68,60,66.64,57.86,65.28,55.7c.24,2.06.48,4.13.73,6.33-7.89,3.69-13.87.61-21.3-13a29.92,29.92,0,0,1,5.23,1.91c2,1.17,3.73,2.79,6.36,3.1l-5.21-4c3.65-3.32,6.6-.24,9.59,1l6.2-3.34L49.75,46.45l1.42-3.11-10-2.3c.12-1,.34-2.89.56-4.8-1.17-1-2.77-1.72-3.41-2.94-.72-1.4-.59-3.21-.86-5l8.12,4.95-3.07-3.45L49.2,25.9,36.61,20l7.07-5.54,3.62,5.82C45.43,10.91,37.69,7.61,31,3.21,29.29,4.2,31.85,11.79,31.85,11.79Z"/><path class="cls-4" d="M180.23,12.28c-5.31,4-6.18,7.49-3.37,13.24l0,0h0c.32-1.68.37-3.52,1.1-4.95.46-.9,2-1.16,3.1-1.7L183,20c-.53-1.76-1.07-3.52-1.6-5.28,3.58,6.18,1.7,9.58-4.44,10.78a.36.36,0,0,0,0,.1.3.3,0,0,1,0-.08q-3.42,1.86-6.84,3.69l.79,1.28,17.79-7.13a22.28,22.28,0,0,1,1.3-3.29c-1.73-.37-3-1.54-3.36-4.81L191.27,17a5,5,0,0,0,.24-1.51l-5.85-3.35c.2-.6.4-1.22.6-1.83a15.4,15.4,0,0,0-1.21-2.67A18.43,18.43,0,0,1,180.23,12.28Z"/><path class="cls-4" d="M122.92,93.21c-.15-3.68-.17-7.37-.51-11-.22-2.46-2.09-6-1.11-7.13,1.6-1.94,4.93-2.35,7.5-3.46a32,32,0,0,0,4.1-2c.24-.15,0-1,0-1.68l-3.25,1.27c-.68-2.09-1.24-3.83-1.8-5.57l-5,3.46,1,1.2,2.85-2c.34.51.68,1,1,1.53L111.42,76l10,17.82Z"/><path class="cls-4" d="M111.32,76.06l.1,0,0-.07-.06.12Z"/><path class="cls-4" d="M111.33,76v.11l.06-.12,0-.06Z"/><path class="cls-4" d="M20.88,1.39c-1.1-.1-2.25-.18-3.36-.21L9.72,9.7c-.12.71-.25,1.45-.38,2.22l.27.22C13.38,8.47,18.15,5.59,20.88,1.39Z"/></g></g></g></g></svg>