<svg xmlns="http://www.w3.org/2000/svg" xmlns:xlink="http://www.w3.org/1999/xlink" viewBox="0 0 191.51 181.78"><defs><style>.cls-1{isolation:isolate;}.cls-2{fill:url(#Dégradé_sans_nom_5);}.cls-3{mix-blend-mode:color-dodge;}.cls-4{fill:none;}.cls-5{fill:#42063d;}</style><linearGradient id="Dégradé_sans_nom_5" x1="96.86" y1="-12.81" x2="94.91" y2="199.17" gradientUnits="userSpaceOnUse"><stop offset="0" stop-color="#ff8bbb"/><stop offset="1" stop-color="#4b0a40"/></linearGradient></defs><title>Fichier 4</title><g class="cls-1"><g id="Calque_2" data-name="Calque 2"><g id="Calque_1-2" data-name="Calque 1"><path class="cls-2" d="M5.32,5.38S.42,4.3,1.23,16.14s2.45,36.58,1.64,43,0,16.14,0,16.14,1.63,6.46,0,8.61l4.9-2.15-4.9,5.38s1.63,12.91,0,16.13,3.26,6.46,3.26,6.46S3.68,114,4.5,122.65s0,21.52,0,21.52.82,10.76-3.27,18.29,3.27,6.45,3.27,6.45,1.63,7.53,4.9,7.53,5.72,4.31,11.43,4.31,7.35-3.23,7.35-3.23V147.4c0-1.08.82,28,1.64,29s9,2.16,9,2.16,6.53-19.37,6.53-25.83-4.08,26.9-4.08,26.9,11.43,2.15,11.43,1.08S51.05,156,51.05,156l3.27,24.75s24.5,1.07,24.5-2.15,1.63-18.29,1.63-18.29V178.6S95.15,184,96,180.75a52.47,52.47,0,0,1,1.63-5.38s4.08,4.3,4.9,4.3a98.45,98.45,0,0,1,18.78,0,77.05,77.05,0,0,0,17.15,0s18-2.15,21.23-1.07,0-8.61,0-8.61l4.9,9.68s13.89,2.15,15.52,0,7.35-47.34,7.35-47.34v-31.2c0-4.3,4.08-15.06,4.08-24.74s-1.63-71-1.63-71L185.8,4.3,182.53,0s.41,1.61-11,.54c0,0-1.63,2.15-5.71,2.15,0,0-.82-2.15-4.9-2.15s-22,0-22.87,1.07-2.45,2.16-4.9,0-9.8,4.31-12.25,3.23-5.71-5.38-11.43-1.07-9,0-9,1.07-.82,3.23-1.64,6.46S98.82.54,93.11.54,84.94-.54,84.94,1.61s0,3.23-3.27,0S70.24.54,68.61,4.84s-9,1.08-9,1.08-4.08,3.22-5.71,0S49.83,7,46.56,4.84,39.21,10.22,31,8.07c0,0-1.63-8.61-4.9-7.53s0,4.3-6.53,3.23S9,45.72,9,51.1,13.08,7,13.08,5.92,5.32,5.38,5.32,5.38Z"/><g class="cls-3"><path class="cls-4" d="M82.15,42.64c-3.66.76-7,4.85-9.27,8.29-.88,1.29,1.48,5,2.69,8.66,1.75,0,4.28.38,6.62-.07C87.48,58.5,92.6,56.34,98,56c10.38-.7,12.86-3.82,10.11-15.7C99.45,40.94,90.57,40.88,82.15,42.64Zm-4.45,6L101,47.17C95.9,52.94,81.29,53.35,77.7,48.61Z"/><path class="cls-4" d="M57.07,79.9c1.45-1.74,1.81-4.48,2.66-6.76-2.79-.88-6.13-3.19-8.28-2.4C42,74.22,32.79,78.59,24,82.44c.5,5.11.87,8.88,1.43,14.58,5.19-2.29,9.71-4.58,14.46-6.26,2.08-.73,4.61-.3,6.95-.35v0C50.25,86.9,53.94,83.66,57.07,79.9Z"/><path class="cls-4" d="M77.84,93.17c.64-4.38-2.23-8.34-4.9-9.31C68.8,82.36,65.55,85.42,64,90c-.71,2.06-2.45,3.68-4.74,7,1.51-6.86,2.56-11.61,3.61-16.36L60.51,79.1q-6.37,9-12.77,18c2.35,2.6,4.71,5.19,7.16,7.88,8.18-1.59,11.62-16.17,23.43-7.43C78.08,95.55,77.68,94.3,77.84,93.17Z"/><path class="cls-4" d="M116.55,43c.3-.28.14-.19,0,0Z"/><path class="cls-5" d="M140.3,20.72c-2,2.36-3.64,5.74-6.23,6.83-3.48,1.47-7.73,1.18-11.73,1.66,1.08-5.12,2.1-10,2.88-13.7L153.78.57l-4.15.07L124.8,5.82c-.15-.57-.3-1.14-.44-1.71-1.45.66-2.71,1.07-3.49.73l-.15-.08a16.67,16.67,0,0,0-1.31,5L111.13,8l2.5-6a8.29,8.29,0,0,0-4.19,1.83c-5.72,4.3-9,0-9,1.07a3.49,3.49,0,0,1,0,.52c4.88,3.38,5.89,7.07,4,14.65l3.94.65-6.49,9.85L99.47,15.9l-.82-.08L96.43,33.7,95,33.62q-.95-8.46-1.88-17c-1,5.19-1.86,10.47-3.2,15.59-.47,1.79-2.26,4.55-3.31,4.43-1.78-.22-3.44-2.39-5.16-3.73-.33-.25-.71-.45-1.07-.69-.62,1.19-1.23,2.34-2.15,4.11-.59-2-1-3.26-1.56-5.21-1.52,1.94-2.48,3.88-4,5-7.36,5.38-4.33,21-18.1,20-.3,0-.75.58-.9,1-2.12,5.82-6.5,5.33-10.51,2.59-2.6-1.77-4.18-5.23-6.78-8.68L30.54,58l9.58,11.14c-8.58-5.1-15.34-13.41-26.83-12.45,7.34,4.15,9.81,6,9.85,8L9.9,58.68c-.46.6-.92,1.19-1.37,1.79L19.07,73.94l-4.38,1.54C11.86,70.05,10,63.9,6.13,59.87A16.11,16.11,0,0,0,3,57.38c0,.69-.08,1.3-.14,1.79-.82,6.46,0,16.14,0,16.14s1.63,6.46,0,8.61l4.9-2.15-4.9,5.38s.28,2.26.5,5.12l2.28-2.7L7.11,91,3.74,94.7l.79,1,12.66-9.39.72.82-11.64,12,1.82,2.11c2.05-1.76,4.08-3.53,6.14-5.27,2.52-2.14,4.72-2.81,6.8,1.19,1,2,3.23,5,4.36,4.84,4.22-.67,8.22-2.46,12.1-3.76-.57,3.58-1.31,8.28-2.19,13.78L46.83,90.67l.78,6.64.11-.16c1.89,3.38,3.15,8.17,5.89,9.61,2.54,1.34,7.93.21,9.93-2,5.67-6.21,10.71-3.4,16.17.37,3.82-.35,8.06.21,11.38-1.26l-3.2-2.29c1.36-9.15,1.3-16.07-4.63-22.65-3-3.3-1-5.32,2.85-5.08s7.53.68,11.3,1l.45-1.8c-5-3.28-15.59,2.26-15.19-9.69,10.61-2.57,10.61-2.57,15.51,7.79,4.48-2.48,9.64-10,13.15,2,5.49-4.84,9.86-9.78,8.16-17.27-.5-2.18-5.69-3.31-6.52-5.65-.61-1.71,1.93-4.47,3.31-6.81l19.67-.7c-2-2.9-3.82-5.56-5.68-8.27l12-11.54ZM59.74,57.32c2.34,3,4.69,5.93,7.89,10l-15.57.1L51,65.59Zm-13,33v0c-2.34,0-4.87-.38-6.95.35-4.75,1.68-9.27,4-14.46,6.26-.56-5.7-.93-9.47-1.43-14.58,8.83-3.85,18-8.22,27.49-11.7,2.15-.79,5.49,1.52,8.28,2.4-.85,2.28-1.21,5-2.66,6.76C53.94,83.66,50.25,86.9,46.79,90.36ZM54.9,105c-2.45-2.69-4.81-5.28-7.16-7.88q6.39-9,12.77-18l2.35,1.45c-1,4.75-2.1,9.5-3.61,16.36,2.29-3.28,4-4.9,4.74-7,1.56-4.53,4.81-7.59,8.95-6.09,2.67,1,5.54,4.93,4.9,9.31-.16,1.13.24,2.38.49,4.4C66.52,88.83,63.08,103.41,54.9,105Zm26.66-3.67c-.11-4.53-.22-9.06-.32-13.49C84.63,89.1,84.63,89.1,81.56,101.33ZM98,56c-5.35.37-10.47,2.53-15.76,3.55-2.34.45-4.87.07-6.62.07C74.36,56,72,52.22,72.88,50.93c2.32-3.44,5.61-7.53,9.27-8.29,8.42-1.76,17.3-1.7,25.91-2.37C110.81,52.15,108.33,55.27,98,56Zm16-.51,2.48.66c-.86,4.25-1.72,8.51-2.82,14C106.51,62.62,112.06,59.47,114,55.46ZM116.55,43c.14-.19.3-.28,0,0Z"/><path class="cls-5" d="M79.85,105.26l-.14-.1h-.06Z"/><path class="cls-5" d="M101,47.17,77.7,48.61C81.29,53.35,95.9,52.94,101,47.17Z"/></g></g></g></g></svg>