<?xml version="1.0" encoding="utf-8"?>
<!-- Generator: Adobe Illustrator 24.0.0, SVG Export Plug-In . SVG Version: 6.00 Build 0)  -->
<svg version="1.1" xmlns="http://www.w3.org/2000/svg" xmlns:xlink="http://www.w3.org/1999/xlink" x="0px" y="0px"
	 viewBox="0 0 247 281" style="enable-background:new 0 0 247 281;" xml:space="preserve">
<style type="text/css">
	.st0{fill:url(#SVGID_1_);}
	.st1{fill:#827397;}
	.st2{font-family:'Girassol-Regular';}
	.st3{font-size:28.9047px;}
	.st4{fill:#D8B9C3;}
</style>
<g id="cardNom_1_">
	<g id="cardNom">
		
			<linearGradient id="SVGID_1_" gradientUnits="userSpaceOnUse" x1="124.6072" y1="116.8786" x2="123.063" y2="22.1679" gradientTransform="matrix(1 0 0 -1 0 282)">
			<stop  offset="0" style="stop-color:#150C27"/>
			<stop  offset="0.8298" style="stop-color:#302A57"/>
			<stop  offset="1" style="stop-color:#363062"/>
		</linearGradient>
		<path class="st0" d="M221.6,259H26c-6.6,0-11.9-5.3-11.9-11.9v-65.2c0-6.6,5.3-11.9,11.9-11.9h195.6c6.6,0,11.9,5.3,11.9,11.9
			v65.2C233.6,253.7,228.2,259,221.6,259z"/>
		<text transform="matrix(1 0 0 1 40.2255 243.7607)" class="st1 st2 st3">Harry Potter !</text>
	</g>
	<g id="starlight2">
	</g>
	<g id="starlight1">
	</g>
</g>
<g id="cardA_1_">
	<g id="cardA">
		<g>
			<path class="st1" d="M200.5,207.1H46.6c-19,0-34.4-15.4-34.4-34.4V34.4C12.2,15.4,27.6,0,46.6,0h153.9c19,0,34.4,15.4,34.4,34.4
				v138.3C234.9,191.7,219.5,207.1,200.5,207.1z"/>
		</g>
		<g>
			<path class="st4" d="M150.9,58.6c-3.6,11.7-7.1,23.4-10.7,35.1c0.2,0.5,0.1,1.1-0.5,1.5c-0.9,3.1-1.9,6.1-2.8,9.2
				c-2.3,7.5-4.7,15.1-7,22.6c-2.3,7.4-4.1,15.4-7.4,22.5c-0.9,2-3.7,0.5-3.3-1.4c0.7-4.1,2.2-8.1,3.5-12.1
				c1.2-3.7,2.4-7.4,3.5-11.1c2.4-7.4,4.7-14.7,7.1-22.1c0.6-2,1.3-3.9,1.9-5.9c-4.6,1.6-9.3,2.8-13.9,4.3c-3.7,1.2-7.4,2.4-11,3.7
				c-0.1,0.4-0.2,0.8-0.3,1.2c-3.7,12.7-6.7,25.7-10.8,38.3c-0.6,1.9-3.4,1.1-3-0.8c2.6-12.6,6.7-25,10.4-37.4
				c-1.3,0.4-2.5,0.9-3.8,1.3c-1.5,0.5-2.5-1.9-1.1-2.5c2-0.9,4-1.7,6-2.5c1.7-5.4,3.3-10.8,5.1-16.2c2-6.3,3.7-12.8,6.3-18.9
				c0.6-1.5,3-1,2.6,0.7c-1.6,6.6-4.1,13-6.1,19.4c-1.4,4.5-2.7,9-4.1,13.5c2.7-1,5.3-2,8-2.9c5.5-1.9,11.2-4.2,17.1-5.2
				c3.8-11.7,7.6-23.4,11.3-35.1C148.5,55.9,151.5,56.7,150.9,58.6z"/>
		</g>
	</g>
</g>
<g id="cica">
	<path d="M96.2,50.7c4.1,2.2,7.9,5,11.3,8.6c-2.1,1.6-1.9,2.5-3.5,4.6c-1.3,1.8-2.7,3.6-4,5.4c3.7-0.2,10.2-7.2,14.6-10.2
		c0.4-0.3,0.8-0.6,0.9-1.1c0.1-0.4,0-0.8-0.2-1.2c-0.6-1.4-1.8-2.2-2.9-3c-2.2-1.4-4.4-2.7-6.6-3.9c-0.7-0.4,14.9-13.7,1.4-6.4
		C103.7,45.3,99.1,48.3,96.2,50.7z"/>
</g>
</svg>
