<?xml version="1.0" encoding="utf-8"?>
<!-- Generator: Adobe Illustrator 24.0.0, SVG Export Plug-In . SVG Version: 6.00 Build 0)  -->
<svg version="1.1" xmlns="http://www.w3.org/2000/svg" xmlns:xlink="http://www.w3.org/1999/xlink" x="0px" y="0px"
	 viewBox="0 0 247 281" style="enable-background:new 0 0 247 281;" xml:space="preserve">
<style type="text/css">
	.st0{fill:url(#SVGID_1_);}
	.st1{fill:#827397;}
	.st2{font-family:'Girassol-Regular';}
	.st3{font-size:28.9047px;}
	.st4{fill:#D8B9C3;}
</style>
<g id="cardNom_1_">
	<g id="cardNom">
		
			<linearGradient id="SVGID_1_" gradientUnits="userSpaceOnUse" x1="124.3051" y1="116.8775" x2="122.7609" y2="22.1668" gradientTransform="matrix(1 0 0 -1 0 282)">
			<stop  offset="0" style="stop-color:#150C27"/>
			<stop  offset="0.8298" style="stop-color:#302A57"/>
			<stop  offset="1" style="stop-color:#363062"/>
		</linearGradient>
		<path class="st0" d="M221.3,259H25.7c-6.6,0-11.9-5.3-11.9-11.9v-65.2c0-6.6,5.3-11.9,11.9-11.9h195.6c6.6,0,11.9,5.3,11.9,11.9
			v65.2C233.2,253.7,227.9,259,221.3,259z"/>
		<text transform="matrix(1 0 0 1 78.5912 243.7607)" class="st1 st2 st3">Ivanova</text>
	</g>
	<g id="starlight2">
	</g>
	<g id="starlight1">
	</g>
</g>
<g id="cardA_1_">
	<g id="cardA">
		<g>
			<path class="st1" d="M200.6,208H46.7c-19,0-34.4-15.4-34.4-34.4V35.3c0-19,15.4-34.4,34.4-34.4h153.9c19,0,34.4,15.4,34.4,34.4
				v138.3C235,192.6,219.6,208,200.6,208z"/>
		</g>
		<g>
			<path class="st4" d="M130.4,71.4c-4.1,11.8-7.8,23.8-10.8,35.9c-1.5,6.1-2.9,12.3-4.2,18.5c-1,5-1.7,10.1-2.9,15
				c2.3-0.4,4.5-0.9,6.8-1.1c1.9-0.2,1.9,2.4,0.4,3.1c-2.7,1.1-5.6,1.7-8.6,2c-0.5,0.4-1.2,0.4-1.7,0.2c-1.2,0.1-2.3,0.2-3.5,0.3
				c-2.1,0.1-2-3,0-3.3c0.9-0.1,1.8-0.2,2.7-0.4c0.5-5.6,1.8-11.3,3-16.8c1.3-6,2.7-12,4.3-18c3.2-12.2,7.1-24.3,11.4-36.2
				C128,68.6,131.1,69.4,130.4,71.4z M141.5,68.7c-3.4-0.5-6.8-0.9-10.2-0.9c-3.5,0-6.7,0.9-10.2,1.3c-1.6,0.2-2.3-2.5-0.8-3.1
				c6.3-2.9,15.2-2.7,21.6-0.2C143.3,66.3,143.3,68.9,141.5,68.7z"/>
		</g>
	</g>
</g>
<g id="fleurs">
	<g>
		<path d="M114.5,105.7c1.8-1.9,2.8-4.2,3.2-6.7c0.7-3.9,0.6-7.9,0.4-11.9c0-0.5,0.1-1.5-0.6-1.2c-2.7,0.8-2.6-0.7-2.2-2.4
			c0.2-1-0.4-1.1-1.1-1.1c-1,0-1.6-0.4-1.7-1.4c-0.1-1,0.4-1.6,1.2-2.1c1-0.6,2.6-0.8,1-2.7c-0.3-0.4,1.9-1.7,2.9-1.9
			c0.9-0.1,1.5-0.4,2.1-0.9c0.8-0.7,1.6-1,2.2,0.2c0.2,0.4,0.3,0.5,0.8,0.6c3.1,0.6,3.1,0.6,1.1,3.2c0.5,0.9,2.2,0.9,1.9,2.4
			c-2.3-0.4-0.3,3.8-3.2,2.8c-1.3-0.4-0.7,0.9-0.7,1.5c-0.1,0.9,0.3,2-1.2,2c-2,0-2,0-1.9,2c0.2,2.7,0.7,5.4,0.6,8
			c-0.1,3.8-1.4,7.4-3.7,10.3c-4.9,6-6.1,13-5.9,20.4c0.1,3-0.5,6,0.2,9.1c0.6-2,3.5-3.5,1.5-6.2c-0.3-0.5,0.1-1.2,0.8-0.8
			c0.5,0.3,0.9,1.5,1.5,0.1c0.4-0.8,0.6-1.6-0.1-2.3c-0.5-0.5-1-1.1-1.5-1.6c-0.6-0.7-1-1.6-0.1-2.2c0.9-0.6,1.2,0.5,1.6,1
			c0.3,0.5,0.5,1,1,2.1c0.8-2.4,1.6-4.1-0.4-5.8c-0.2-0.2-0.4-0.4-0.5-0.6c-0.4-0.6-1-1.4-0.2-2c0.8-0.7,1.3,0.1,1.7,0.8
			c0.2,0.4,0.5,0.7,0.8,1.2c0.7-1.6,1.3-2.9-0.1-4.2c-0.7-0.7-1.9-2.1-0.6-2.8c1.2-0.7,0.9,1.4,2,2c0.7-1.1,0.9-2.3,0.7-3.5
			c-0.1-0.6-0.2-1.3-0.1-1.9c0-0.7,0.3-1.4,1.1-1.4c0.9,0.1,0.7,0.9,0.6,1.5c-0.3,2-0.7,4-1,6.2c0.4-0.1,0.6-0.2,0.8-0.3
			c0.6-0.5,1-1.4,2.1-1.1c0.2,0.1,0.4,0.4,0.4,0.6c-0.1,0.9-0.9,1.6-1.7,1.7c-2.7,0.4-2.6,2.4-2.8,4.3c1.4,0.2,2.7-2.2,3.3-0.8
			c0.8,1.9-1.6,1.6-2.8,2.1c-2,0.9-1.2,2.8-1.7,4.3c0.8,0.9,2-1.6,2.4,0.2c0.3,1.1-1.1,1.2-1.9,1.6c-1.8,0.7-2.2,2.9-0.9,4.4
			c-2.8,0.5-5.4,5.1-5.1,9.1c0.2,2.9,0.7,5.7,1.1,8.6c0.1,0.6,0.6,1.2-0.3,1.9c-2.8-3.6-1.8-9.6-7.3-11.4c-0.2-1.4,1.8,0.6,1.5-1
			c-0.2-0.8-0.6-1.4-1.5-1.2c-0.2,0-0.4,0-0.6,0c-0.8-0.3-2.3-0.6-1.8-1.6c0.6-1.3,1.5,0.4,2.5,0.3c-0.1-1.5-0.5-2.7-2.4-3
			c-0.7-0.1-2-0.2-1.6-1.4c0.4-1,1.3,0.2,2,0c0.5-3.2-3.6-2-4.1-3.7c0-1.7,3.1,1.2,1.7-1.9c1.4,1,2-1,2.8-0.8c1,0.3,0.3,1.5,0.1,2.2
			c-0.4,1.4,0.3,2.3,0.9,3.4c0.7-0.3,0.7-1.9,1.7-1.2c0.7,0.5,0.3,1.4-0.2,2c-0.8,1.2-0.5,2.2,0.2,3.3c0.8-0.3,0.2-1.8,1.3-1.5
			c1,0.3,0.4,1.2,0.2,1.9c-0.3,1.1-1.9,2.7,1,2.6c0.3,0,0.5,0.6,0.3,0.9c-1.1,1.8,0.3,2.8,1.2,4.1c0-5.6-0.5-11.2-3.8-16
			c-3.1-4.5-5.3-9.3-5.8-14.9c-0.2-1.7-0.5-3.2-2.9-3.1c-1.9,0-2.7-1.7-2.5-3.4c0.2-1.9-0.2-3-2.1-3.4c-0.9-0.2-1.8-0.9-1.8-1.9
			c0.1-1.3,1.1-0.9,1.9-0.7c0.3,0.1,0.6-0.1,0.5-0.4c-0.5-1.8,0.4-1.1,1.5-1.4c3.7-1.1,2.7,1.5,2.6,3c-0.1,1.3,0.3,1.6,1.2,2.1
			c1.8,1,2.1,2.5,1.9,4.7c-0.3,3.4,0.7,6.7,1.6,10c0.9,3.2,2.6,6.1,4.8,8.7c-0.7-4.3-0.4-8.6-1.8-12.8c-0.9-2.7-0.7-5.4,0.7-8
			c0,0-0.1,0-0.1,0c0.1,2.3-0.8,4.7,0,6.9c1.9,5.3,1,11.1,3.3,16.3c-0.3-6,1.2-11.8,1.8-17.7c0.1-1.3,0.1-2.8,1.2-3.9
			c-0.1,0.9-0.2,1.8-0.3,3.1C112.6,109.2,113.8,107.6,114.5,105.7L114.5,105.7z M117,79.5c-0.1-0.6-0.5-0.7-1-0.6
			c-1.1,0.2-2.2,0.6-2.5,1.8c-0.2,0.7,0.5,0.8,1.1,0.8C115.7,81.3,116.4,80.5,117,79.5z M116,85.4c1.6-1.5,2.2-2.8,2.5-4.9
			C116.7,81.8,116,83.1,116,85.4z"/>
		<path d="M97.5,90.9c-0.8,0.6-1.6,0.4-2-0.4c-0.3-0.6-0.1-1.3,0.5-1.7c1-0.7,2.3-1.3,1.3-2.9c2.3,0.5,1.1-5.8,4.9-2.4
			c0.6,0.5,0.7-0.5,1-0.9c0.6-1,1.1-2.1,2.5-1.8c1.6,0.3-0.1,1.8,0.8,2.5c1.6-0.4,3.2-2.7,4.8-0.7c1.2,1.5-1,2-1.8,3
			c0.7,0.3,1.2,0.5,1.7,0.8c1.4,0.9,2.3,2,0,2.8c-0.8,0.3-0.6,0.8-0.6,1.3c-1.6-0.4-2.7-2.1-5-2.4c1.4,1.3,2.3,2.4,3.4,3.3
			c1.4,1.1,1.4-0.1,1.5-1c1.4,0.9,1.3,2.1-0.3,2.1c-1.7,0-1.4,1.1-2,1.9c-2.8,3.3-1.1,7.5-2.6,10.9c-0.2,0.4-0.1,0.9-0.6,1.2
			c0,0,0.1,0,0.1,0c0.1-2.5,0.2-5,0.3-7.5c0-0.6,0.4-1.7-1-1.4c-2.4,0.6-2.7-1.2-3.2-2.9c-1,0.4-1.3,2.4-2.8,1.4
			c-1.2-0.8-1.1-2-0.7-3.2C97.8,92.2,98.4,91.5,97.5,90.9c0.5-1,2-1.1,2.3-2.4c-1.2-0.5-2.1,0.2-2.8,0.7
			C95.7,90,96.5,90.5,97.5,90.9z M103.3,89.8c-0.8,1.6-1,2.9-0.9,4.3c0.1,0.9-0.2,2.5,1.1,2.4c1.1-0.1,0.9-1.6,0.9-2.6
			C104.4,92.5,103.9,91.4,103.3,89.8z M101.3,89.4c-1.8,1.3-2.5,2.6-3,4.1c-0.2,0.7-0.3,1.4,0.4,1.7c1,0.4,1-0.6,1.2-1.1
			C100.4,92.8,100.7,91.4,101.3,89.4z M104.8,89.3c0.9,3.8,0.9,3.8,2.3,5.2C107.3,91.8,107,91.1,104.8,89.3z"/>
		<path d="M112.1,106.2c0.1-0.9-0.1-1.6-0.7-2.3c-0.8-1-1.4-2,0.8-1.8c0.8,0.1,0.8-0.7,0.6-1.2c-0.2-0.5-0.6-0.9-0.9-1.3
			c-0.5-0.6-1.4-1.5-0.6-2.1c0.9-0.7,1,1,1.9,1.1c0.4-1.2-0.2-2.1-0.8-3.1c-0.4-0.5-0.8-1.2-0.2-1.7c0.7-0.5,0.9,0.8,1.5,0.9
			c1.1-0.7-0.1-3.4,1.6-2.8c2.2,0.8-0.9,2.1,0.1,4c0.1,0.1,0.7-1.5,1.1-0.6c0.4,0.8-0.2,1.2-0.8,1.5c-1.1,0.6-1.8,1.3-1.5,2.7
			c0.8,0.4,1.1-1.6,1.9-0.5c0.4,0.6-0.3,1.2-0.8,1.5c-2.3,1.4-2.1,3.2-0.9,5.1c0,0,0.1-0.1,0.1-0.1
			C113.7,105.6,112.9,105.7,112.1,106.2z"/>
	</g>
</g>
</svg>
