<?xml version="1.0" encoding="utf-8"?>
<!-- Generator: Adobe Illustrator 24.0.0, SVG Export Plug-In . SVG Version: 6.00 Build 0)  -->
<svg version="1.1" xmlns="http://www.w3.org/2000/svg" xmlns:xlink="http://www.w3.org/1999/xlink" x="0px" y="0px"
	 viewBox="0 0 247 281" style="enable-background:new 0 0 247 281;" xml:space="preserve">
<style type="text/css">
	.st0{fill:url(#SVGID_1_);}
	.st1{fill:#827397;}
	.st2{font-family:'Girassol-Regular';}
	.st3{font-size:28.9047px;}
	.st4{fill:#D8B9C3;}
</style>
<g id="cardNom">
	<linearGradient id="SVGID_1_" gradientUnits="userSpaceOnUse" x1="124.2701" y1="165.1219" x2="122.7259" y2="259.8326">
		<stop  offset="0" style="stop-color:#150C27"/>
		<stop  offset="0.8298" style="stop-color:#302A57"/>
		<stop  offset="1" style="stop-color:#363062"/>
	</linearGradient>
	<path class="st0" d="M221.3,259H25.7c-6.6,0-11.9-5.3-11.9-11.9v-65.2c0-6.6,5.3-11.9,11.9-11.9h195.6c6.6,0,11.9,5.3,11.9,11.9
		v65.2C233.2,253.7,227.9,259,221.3,259z"/>
	<text transform="matrix(1 0 0 1 14.5912 243.7607)" class="st1 st2 st3">Jedusor, Tom Elvis</text>
</g>
<g id="starlight2">
</g>
<g id="starlight1">
</g>
<g id="cardA">
	<g>
		<path class="st1" d="M200.6,207.6H46.7c-19,0-34.4-15.4-34.4-34.4V34.9c0-19,15.4-34.4,34.4-34.4h153.9c19,0,34.4,15.4,34.4,34.4
			v138.3C235,192.2,219.6,207.6,200.6,207.6z"/>
	</g>
	<g>
		<path class="st4" d="M150.6,55.3c-1.3,1.6-3.2,2.4-5.1,3.2c-2.3,10.7-4.6,21.4-7.5,32c-5.3,19.3-12.6,38.3-24,54.8
			c-2.4,3.5-4.9,8-9.2,9.4c-4.2,1.4-7.9-1.2-8.3-5.5c-0.5-4.7,0.5-10,1.6-14.5c1.2-5.2,3.2-10.1,5.7-14.8c1-1.9,4.3-0.5,3.5,1.5
			c-2,4.8-3.7,9.8-4.7,15c-0.6,2.6-1,5.2-1.2,7.9c-0.1,1.5-1.1,5.6,0.9,6.2c3.3,1.1,7.3-6.5,8.7-8.5c2.5-3.7,4.9-7.5,7.1-11.5
			c4.2-7.7,7.8-15.7,10.8-24c5.5-15.2,9.4-31,13.1-46.7c-1.9,0.7-3.8,1.3-5.8,1.8c-2.2,0.6-3.1-2.7-0.9-3.3c2.7-0.8,5.4-1.7,8-2.8
			c2.2-1,4.1-2.1,6.5-2.4C150.9,52.9,151.2,54.5,150.6,55.3z"/>
	</g>
</g>
</svg>
