<?xml version="1.0" encoding="utf-8"?>
<!-- Generator: Adobe Illustrator 24.0.0, SVG Export Plug-In . SVG Version: 6.00 Build 0)  -->
<svg version="1.1" xmlns="http://www.w3.org/2000/svg" xmlns:xlink="http://www.w3.org/1999/xlink" x="0px" y="0px"
	 viewBox="0 0 247 281" style="enable-background:new 0 0 247 281;" xml:space="preserve">
<style type="text/css">
	.st0{fill:url(#SVGID_1_);}
	.st1{fill:#827397;}
	.st2{font-family:'Girassol-Regular';}
	.st3{font-size:28.9047px;}
	.st4{fill:#D8B9C3;}
</style>
<g id="cardNom">
	<linearGradient id="SVGID_1_" gradientUnits="userSpaceOnUse" x1="123.4516" y1="165.1219" x2="121.9074" y2="259.8326">
		<stop  offset="0" style="stop-color:#150C27"/>
		<stop  offset="0.8298" style="stop-color:#302A57"/>
		<stop  offset="1" style="stop-color:#363062"/>
	</linearGradient>
	<path class="st0" d="M220.5,259H24.8c-6.6,0-11.9-5.3-11.9-11.9v-65.2c0-6.6,5.3-11.9,11.9-11.9h195.6c6.6,0,11.9,5.3,11.9,11.9
		v65.2C232.4,253.7,227,259,220.5,259z"/>
	<text transform="matrix(1 0 0 1 72.3824 243.7607)" class="st1 st2 st3">Sang pur</text>
</g>
<g id="starlight2">
</g>
<g id="starlight1">
</g>
<g id="cardA">
	<g>
		<path class="st1" d="M199,207.3H45.1c-19,0-34.4-15.4-34.4-34.4V34.6c0-19,15.4-34.4,34.4-34.4H199c19,0,34.4,15.4,34.4,34.4
			v138.3C233.4,191.9,218,207.3,199,207.3z"/>
	</g>
	<g>
		<path class="st4" d="M139.1,134.2c-24.5,27.3-23.5,11.8-22.7,9.9c1.1-2.7,3.5-1.2,3.5-1.2s-0.8,5.9,0.8,5.4c1.2-0.3,3.9-1.9,9.3-7
			c7.8-7.2,14.6-18.3,3.2-17.3c-8.6,0.8-17.9,4.1-26.5,3.1c-2.8-0.3-5.7-1.3-6.8-4.2c-1.6-4.3-0.1-10.6,0.8-14.9
			c4.7-22.4,23.2-49.4,33.9-50.8c13.1-1.7,11.9,32.2,7.4,46.6c-0.6,2-3.7,1.1-3-0.8c10.3-31.2,2.9-58.3-15.4-32.6
			c-7.2,10.2-13.9,21.2-17.5,33.2c-0.9,3-1.6,6-2,9.1c-0.3,2.3-1,5.9-0.3,8.1c0.8,2.4,4.6,2,6.6,1.9c8.7-0.3,17.4-3.4,26.1-2.3
			C144.7,121.7,143.8,129,139.1,134.2z"/>
	</g>
</g>
</svg>
