<?xml version="1.0" encoding="utf-8"?>
<!-- Generator: Adobe Illustrator 24.0.0, SVG Export Plug-In . SVG Version: 6.00 Build 0)  -->
<svg version="1.1" xmlns="http://www.w3.org/2000/svg" xmlns:xlink="http://www.w3.org/1999/xlink" x="0px" y="0px"
	 viewBox="0 0 247 281" style="enable-background:new 0 0 247 281;" xml:space="preserve">
<style type="text/css">
	.st0{fill:url(#SVGID_1_);}
	.st1{fill:#827397;}
	.st2{font-family:'Girassol-Regular';}
	.st3{font-size:28.9047px;}
	.st4{fill:#D8B9C3;}
</style>
<g id="cardNom">
	<linearGradient id="SVGID_1_" gradientUnits="userSpaceOnUse" x1="123.4516" y1="165.1219" x2="121.9074" y2="259.8326">
		<stop  offset="0" style="stop-color:#150C27"/>
		<stop  offset="0.8298" style="stop-color:#302A57"/>
		<stop  offset="1" style="stop-color:#363062"/>
	</linearGradient>
	<path class="st0" d="M220.5,259H24.8c-6.6,0-11.9-5.3-11.9-11.9v-65.2c0-6.6,5.3-11.9,11.9-11.9h195.6c6.6,0,11.9,5.3,11.9,11.9
		v65.2C232.4,253.7,227,259,220.5,259z"/>
	<text transform="matrix(1 0 0 1 59.9532 243.7607)" class="st1 st2 st3">Voldemort</text>
</g>
<g id="starlight2">
</g>
<g id="starlight1">
</g>
<g id="cardA">
	<g>
		<path class="st1" d="M199.8,207H45.9c-19,0-34.4-15.4-34.4-34.4V34.3C11.5,15.3,26.9,0,45.9,0h153.9c19,0,34.4,15.4,34.4,34.4
			v138.3C234.1,191.6,218.7,207,199.8,207z"/>
	</g>
	<g>
		<path class="st4" d="M149.7,62.2c-4.7,7.2-10.1,14-14.8,21.3c-4.7,7.3-9.1,14.7-13.1,22.4c-4,7.6-7.8,15.5-11.2,23.4
			c-2.9,6.8-5.4,14-11.7,18.5c-1.3,1-3.5-0.3-3.4-1.9c1.8-25.5,3.7-51,6.6-76.5c0.2-1.7,2.9-1.8,2.7,0c-1.8,23.5-3.5,47-4.6,70.5
			c3.3-4.6,5.1-10.3,7.3-15.4c3.3-7.7,7-15.2,10.9-22.6s8.2-14.6,12.7-21.6c4.6-7.1,9.3-14.6,14.9-20.9
			C147.9,57.6,151.1,60.1,149.7,62.2z"/>
	</g>
</g>
</svg>
