<?xml version="1.0" encoding="utf-8"?>
<!-- Generator: Adobe Illustrator 24.0.0, SVG Export Plug-In . SVG Version: 6.00 Build 0)  -->
<svg version="1.1" xmlns="http://www.w3.org/2000/svg" xmlns:xlink="http://www.w3.org/1999/xlink" x="0px" y="0px"
	 viewBox="0 0 247 281" style="enable-background:new 0 0 247 281;" xml:space="preserve">
<style type="text/css">
	.st0{fill:url(#SVGID_1_);}
	.st1{fill:#827397;}
	.st2{font-family:'Girassol-Regular';}
	.st3{font-size:28.9047px;}
	.st4{fill:#D8B9C3;}
</style>
<g id="cardNom_1_">
	<g id="cardNom">
		
			<linearGradient id="SVGID_1_" gradientUnits="userSpaceOnUse" x1="124.2073" y1="116.879" x2="122.6631" y2="22.1683" gradientTransform="matrix(1 0 0 -1 0 282)">
			<stop  offset="0" style="stop-color:#150C27"/>
			<stop  offset="0.8298" style="stop-color:#302A57"/>
			<stop  offset="1" style="stop-color:#363062"/>
		</linearGradient>
		<path class="st0" d="M221.3,259H25.6c-6.6,0-11.9-5.3-11.9-11.9v-65.2c0-6.6,5.3-11.9,11.9-11.9h195.6c6.6,0,11.9,5.3,11.9,11.9
			v65.2C233.2,253.7,227.9,259,221.3,259z"/>
		<text transform="matrix(1 0 0 1 78.5983 243.7607)" class="st1 st2 st3">Gobelin</text>
	</g>
</g>
<g id="cardA_1_">
	<g id="starlight2">
	</g>
	<g id="starlight1">
	</g>
	<g id="cardA">
		<g>
			<path class="st1" d="M200.5,207.8H46.6c-19,0-34.4-15.4-34.4-34.4V35.1c0-19,15.4-34.4,34.4-34.4h153.9c19,0,34.4,15.4,34.4,34.4
				v138.3C234.9,192.4,219.5,207.8,200.5,207.8z"/>
		</g>
		<g>
			<path class="st4" d="M154.6,66c-1.4,6.9-3.7,13.5-6.8,19.8c-0.9,1.9-3.8,0.5-3.3-1.4c1-3.5,1.6-7,1.5-10.7c0-3-0.1-7.4-3.1-9.1
				c-5.6-3.2-11.8,4.1-15.3,7.5c-7.6,7.6-14.3,16.2-19.8,25.5c-5.8,9.8-11.2,20.9-11.7,32.5c-0.2,4.2,0.3,9.4,3.7,12.4
				c4.6,4.1,10.8-0.2,14.7-3.1c4.3-3.2,8.2-7,11.5-11.1c3.4-4.2,5.8-8.9,8.8-13.4c0.3-0.4,0.6-0.6,1.1-0.7c0.7-2.2,1.4-4.5,2.1-6.7
				c0.3-0.8,0.6-1.8,0.9-2.7c-3.9,2.4-9,3.4-13.2,2.4c-1.7-0.4-1.2-2.9,0.4-3c2.8-0.1,5.3-0.1,8-1c2.6-0.9,4.8-2.4,7.1-3.7
				c0.1,0,0.2-0.1,0.2-0.1c0.1-0.1,0.1-0.2,0.2-0.3c0.7-0.8,2.2-0.2,2.1,0.9c-0.2,2.9-1.9,6-2.8,8.7c-1,3.1-1.9,6.2-2.8,9.4
				c-1.6,6.3-2.7,12.7-3.8,19.2c-0.3,1.7-3.2,1.3-3.1-0.4c0.3-3.8,0.9-7.6,1.6-11.4c-2.1,3-4.5,5.9-6.9,8.4
				c-4.6,4.9-10.3,10.2-16.6,12.8c-5.2,2.2-10.8,1.2-14.1-3.6c-3.3-4.7-3.4-11-2.8-16.5c1.6-13.1,8.3-25.6,15.5-36.4
				c3.7-5.6,7.9-10.9,12.4-15.9c4-4.4,8.6-9.9,14-12.6c4.8-2.4,11-1.7,13.4,3.5c1,2.2,1.5,4.8,1.7,7.4c0.9-2.5,1.7-5,2.3-7.6
				C152.5,63.7,154.9,64.4,154.6,66z"/>
		</g>
	</g>
</g>
<g id="champi">
	<path d="M104.9,142.9c-2.4,2.8-4.7,2.5-6.5-0.8c-7.7-14.3-10.3-29.3-4.8-45c0.2-0.6,0.4-1.2,0.6-1.7c1-2.6,2-5-0.9-7.5
		c-2.3-1.9-2.1-4.5-0.1-7.1c2-2.6,4.1-5,6.7-6.9c3.4-2.5,6.2-2.7,8.9-0.7c2.8,2,4.1,5.8,2.8,9.2c-1.2,3.1-2.7,6.1-4.3,9
		c-0.9,1.6-2.7,1.5-4.1,0.9c-2.5-1-3.6,0.2-4.5,2.4c-3.7,10-3.9,20.2-2.1,30.5c0.9,5.3,2.3,10.5,4.6,15.4c-1.2-0.2-1.5-1.3-1.9-2.2
		c-2.8-7.4-4.6-15.1-4.7-23c-0.1-9.2,0.9-18.2,6-26.2c0.7-1,1.1-2.5-0.3-3.2c-1.6-0.7-2.3,0.7-2.7,2c-1.1,3.1-2.3,6.2-3.3,9.4
		c-4.8,15.1-3,29.5,4.3,43.4c0.6,1.1,1.3,3.9,2.9,0.5c3.9-3.4,5.3-8.2,6.8-12.9c1.1-3.5,1-7.2,0.9-10.8c-0.1-2,0.1-3.7-2.7-4.5
		c-2.7-0.7-4.5-8.1-3-10.6c0.5-0.8,1.1-1.4,2.1-1.5c2.7-0.5,8.3,3.3,8.8,6c0.1,0.7,0,1.5-0.6,2c-2.3,1.9-1.6,4.2-1.5,6.6
		c0.4,6.1,0.4,12.2-2.7,17.7c1.7-7.9,3.2-15.8,0.1-23.6c0.5,5.9,1.3,11.7,0,17.6c-1.3,6-4,11.4-8,16.2
		C103,144.1,103.8,142.7,104.9,142.9z M107.7,87.3c1.6-2.2,2.8-4.3,3.1-6.8c0.3-2.7-0.6-4.8-2.7-6.3c-2.1-1.5-4.5-1.2-6.5,0.2
		c-1.6,1-3,2.4-4.4,3.7c-1,1-1.2,2,0.5,2.4C101.8,81.3,104.7,84.1,107.7,87.3z M105.1,109.3c1.6-1.6,3-2.9,4.8-3.5
		c0.9-0.3,1.5-1,0.5-1.7c-1.5-1.2-3.2-2.6-5.1-1.6c-1.9,1-1.7,3-1,4.8C104.6,107.8,104.8,108.4,105.1,109.3z"/>
</g>
</svg>
