<?xml version="1.0" encoding="utf-8"?>
<!-- Generator: Adobe Illustrator 24.0.0, SVG Export Plug-In . SVG Version: 6.00 Build 0)  -->
<svg version="1.1" xmlns="http://www.w3.org/2000/svg" xmlns:xlink="http://www.w3.org/1999/xlink" x="0px" y="0px"
	 viewBox="0 0 247 281" style="enable-background:new 0 0 247 281;" xml:space="preserve">
<style type="text/css">
	.st0{fill:url(#SVGID_1_);}
	.st1{fill:#827397;}
	.st2{font-family:'Girassol-Regular';}
	.st3{font-size:28.9047px;}
	.st4{fill:#D8B9C3;}
</style>
<g id="cardNom">
	<linearGradient id="SVGID_1_" gradientUnits="userSpaceOnUse" x1="124.0283" y1="165.1219" x2="122.4841" y2="259.8326">
		<stop  offset="0" style="stop-color:#150C27"/>
		<stop  offset="0.8298" style="stop-color:#302A57"/>
		<stop  offset="1" style="stop-color:#363062"/>
	</linearGradient>
	<path class="st0" d="M221,259H25.4c-6.6,0-11.9-5.3-11.9-11.9v-65.2c0-6.6,5.3-11.9,11.9-11.9H221c6.6,0,11.9,5.3,11.9,11.9v65.2
		C233,253.7,227.6,259,221,259z"/>
	<text transform="matrix(1 0 0 1 54.0698 243.7607)" class="st1 st2 st3">Miss Teigne</text>
</g>
<g id="starlight2">
</g>
<g id="starlight1">
</g>
<g id="cardA">
	<g>
		<path class="st1" d="M200.6,207.2H46.7c-19,0-34.4-15.4-34.4-34.4V34.5c0-19,15.4-34.4,34.4-34.4h153.9c19,0,34.4,15.4,34.4,34.4
			v138.3C235,191.8,219.6,207.2,200.6,207.2z"/>
	</g>
	<g>
		<path class="st4" d="M150.2,62c-1.2,5.6-2.2,11.2-3.1,16.8c-2.2,13-4.1,26-5.7,39.1c-0.7,5.7-1.3,11.5-1.8,17.2
			c-0.3,3.5-0.8,7.3-0.5,10.8c0.2,2.5-3.6,2.5-3.9,0c-0.4-3.8-0.1-8.6,0.2-12.8c1.1-12.8,2.9-25.6,4.9-38.3
			c1.3-8.3,2.5-16.6,4.1-24.9c-11.1,15.6-20.5,32.4-27.9,50.1c-0.8,1.8-4.1,1.8-3.8-0.5c1.7-13,3.4-25.9,5.2-38.9
			c-8.7,19.1-14.9,39.3-18.3,60c-0.3,1.6-2.7,0.9-2.5-0.7c3.7-24.5,11.2-48.2,22.3-70.3c0.7-1.4,3.3-0.8,3.1,0.8
			c-1.5,12.1-3,24.2-4.4,36.2c7.7-16.4,17.2-32,28.3-46.4C147.8,58.6,150.7,59.6,150.2,62z"/>
	</g>
</g>
</svg>
