<?xml version="1.0" encoding="utf-8"?>
<!-- Generator: Adobe Illustrator 24.0.0, SVG Export Plug-In . SVG Version: 6.00 Build 0)  -->
<svg version="1.1" xmlns="http://www.w3.org/2000/svg" xmlns:xlink="http://www.w3.org/1999/xlink" x="0px" y="0px"
	 viewBox="0 0 247 281" style="enable-background:new 0 0 247 281;" xml:space="preserve">
<style type="text/css">
	.st0{fill:url(#SVGID_1_);}
	.st1{fill:#827397;}
	.st2{font-family:'Girassol-Regular';}
	.st3{font-size:28.9047px;}
	.st4{fill:#D8B9C3;}
</style>
<g id="cardNom">
	<linearGradient id="SVGID_1_" gradientUnits="userSpaceOnUse" x1="123.4516" y1="165.1219" x2="121.9074" y2="259.8326">
		<stop  offset="0" style="stop-color:#150C27"/>
		<stop  offset="0.8298" style="stop-color:#302A57"/>
		<stop  offset="1" style="stop-color:#363062"/>
	</linearGradient>
	<path class="st0" d="M220.5,259H24.8c-6.6,0-11.9-5.3-11.9-11.9v-65.2c0-6.6,5.3-11.9,11.9-11.9h195.6c6.6,0,11.9,5.3,11.9,11.9
		v65.2C232.4,253.7,227,259,220.5,259z"/>
	<text transform="matrix(1 0 0 1 35.7749 243.7607)" class="st1 st2 st3">Rogue, Severus</text>
</g>
<g id="starlight2">
</g>
<g id="starlight1">
</g>
<g id="cardA">
	<g>
		<path class="st1" d="M199.1,207.3H45.2c-19,0-34.4-15.4-34.4-34.4V34.6c0-19,15.4-34.4,34.4-34.4h153.9c19,0,34.4,15.4,34.4,34.4
			v138.3C233.5,191.9,218.1,207.3,199.1,207.3z"/>
	</g>
	<g>
		<path class="st4" d="M152.8,140.2c-4.9,0.3-9.9-0.4-14.7-0.8c-4.8-0.4-9.5-0.9-14.3-1.3c-8.4-0.8-17-1.3-25.4-2.3
			c-1.7,6.3-3.2,12.7-5.4,18.8c-0.7,1.9-3.5,1.2-3.1-0.9c1.4-6.2,3.2-12.3,5-18.3c0,0-0.1,0-0.1,0c-1.6-0.2-3.1-2.3-1.5-3.6
			c1.2-1,2.3-2,3.5-3.1c1.5-5.6,3-11.1,4.5-16.7c3.7-13.9,7.3-27.9,10.8-41.9c0.4-1.6,2.9-0.9,2.5,0.7c-3.2,14.1-6.5,28.1-10.1,42.1
			c-1,3.8-2,7.5-2.9,11.3c6-5.9,11.6-12.2,17-18.6c6.8-8,13.6-16.4,18.5-25.7c3.8-7.2,9-21.1-2.2-24.5c-8.1-2.5-17.1,2.1-23.4,6.9
			c-7.2,5.5-12.7,13.2-15.5,21.8c-0.5,1.7-3.2,1-2.6-0.7c3.4-10.5,10.2-19.5,19.4-25.6c7.1-4.6,17.1-8.5,25.3-4.5
			c9.6,4.7,7.3,16.6,3.9,24.5c-4.7,11-12.6,20.6-20.1,29.8c-7,8.4-14.5,16.1-22.1,23.8c0,0,0,0,0,0c8.2,0.6,16.5,1.5,24.7,2.2
			c4.8,0.4,9.5,0.8,14.3,1.3c4.9,0.5,9.9,0.7,14.7,1.9C155.2,137.4,154.7,140.1,152.8,140.2z"/>
	</g>
</g>
</svg>
