<?xml version="1.0" encoding="utf-8"?>
<!-- Generator: Adobe Illustrator 24.0.0, SVG Export Plug-In . SVG Version: 6.00 Build 0)  -->
<svg version="1.1" xmlns="http://www.w3.org/2000/svg" xmlns:xlink="http://www.w3.org/1999/xlink" x="0px" y="0px"
	 viewBox="0 0 247 281" style="enable-background:new 0 0 247 281;" xml:space="preserve">
<style type="text/css">
	.st0{fill:url(#SVGID_1_);}
	.st1{fill:#827397;}
	.st2{font-family:'Girassol-Regular';}
	.st3{font-size:28.9047px;}
	.st4{fill:#D8B9C3;}
</style>
<g id="cardNom_1_">
	<g id="cardNom">
		
			<linearGradient id="SVGID_1_" gradientUnits="userSpaceOnUse" x1="124.5072" y1="116.8785" x2="122.963" y2="22.1678" gradientTransform="matrix(1 0 0 -1 0 282)">
			<stop  offset="0" style="stop-color:#150C27"/>
			<stop  offset="0.8298" style="stop-color:#302A57"/>
			<stop  offset="1" style="stop-color:#363062"/>
		</linearGradient>
		<path class="st0" d="M221.5,259H25.9c-6.6,0-11.9-5.3-11.9-11.9v-65.2c0-6.6,5.3-11.9,11.9-11.9h195.6c6.6,0,11.9,5.3,11.9,11.9
			v65.2C233.5,253.7,228.1,259,221.5,259z"/>
		<text transform="matrix(1 0 0 1 43.6377 243.7607)" class="st1 st2 st3">Bièraubeurre</text>
	</g>
	<g id="starlight2">
	</g>
	<g id="starlight1">
	</g>
</g>
<g id="cardA_1_">
	<g id="cardA">
		<g>
			<path class="st1" d="M200.8,207.7H46.9c-19,0-34.4-15.4-34.4-34.4V35c0-19,15.4-34.4,34.4-34.4h153.9c19,0,34.4,15.4,34.4,34.4
				v138.3C235.2,192.3,219.8,207.7,200.8,207.7z"/>
		</g>
		<g>
			<path class="st4" d="M158.6,122.1c-3.4,5.5-9.8,9.1-15.3,12.1c-4.9,2.8-10.1,5.2-15.6,6.7c-7.6,2.1-15.9,2.5-23.3-0.5
				c-5.4-2.2-10-5.9-13.4-10.6c-1.9-2.6-3.8-6.1-3.7-9.5c0.1-2.5,3.8-2.5,3.8,0c0,0,0,0.1,0,0.3c0.1,0.3,0.1,0.6,0.2,0.8
				c0.2,0.6,0.3,0.8,0.7,1.6c0.8,1.7,1.9,3.3,3.1,4.7c7.3,8.8,18.6,11.4,29.5,8.9c4.4-1,8.7-2.7,12.7-4.7c4.9-2.5,10.3-5.4,14.4-9.1
				c2-1.8,4.4-4.5,3.8-7.4c-0.5-2.4-2.8-3.8-4.9-4.7c-5.6-2.4-12-2.8-17.9-1.5c-2.4,0.5-3.7-2.1-2.2-3.9c5-6.1,9.7-12.3,14.1-18.9
				c2.2-3.2,4.2-6.5,6.2-9.8c1.1-1.9,5.2-7.9,0.1-7.2c-12.6,1.6-24.3,11.1-30.4,21.9c-1,1.8-3.8,0.2-2.8-1.6
				c3.3-5.9,7.8-11.1,13.2-15.1c4.8-3.6,10.3-6.3,16-7.9c2.7-0.7,6-1.7,8.4,0.1c2,1.5,2.3,4,1.7,6.3c-0.8,3-2.8,5.8-4.4,8.5
				c-1.9,3.2-3.9,6.3-6,9.4c-3,4.4-6.1,8.8-9.3,13c5.4-0.3,11,0.5,15.9,2.9C159.6,109.7,162.4,116,158.6,122.1z M91.2,120.4
				C91.2,120.4,91.2,120.3,91.2,120.4C91.2,120.3,91.2,120.3,91.2,120.4z M112.8,134.4L112.8,134.4c1.6-4.8,4.3-9.4,6.5-14
				c2.1-4.5,4.2-9,6.2-13.5c2.1-4.7,4.1-9.3,6.2-14c1.1-2.4,2.1-4.8,3.2-7.2c0.9-2,1.7-4.2,3.1-5.9c0.5-0.6,1.6-0.1,1.6,0.7
				c-0.2,2.4-1.2,4.7-2,6.9c-0.9,2.5-1.9,4.9-2.8,7.4c-1.8,4.5-3.6,8.9-5.5,13.3c-2,4.7-4.1,9.4-6.2,14.1c-2.1,4.6-3.9,9.6-6.6,13.8
				C115.1,137.9,112.3,136.4,112.8,134.4z"/>
		</g>
	</g>
</g>
<g id="biere">
	<g>
		<path d="M84.8,121.6c-0.6-5.4,0.5-12.2-0.2-19c-0.3-3.3,2-4.9,4.5-6.2c2.3-1.1,3.8-2.7,4.2-5.3c0.2-1.3,0.4-2.4-1.1-3.1
			c-1.1-0.5-1.3-2-0.5-2.2c2.4-0.9,1.4-2.5,1.3-3.9c-0.1-1.9-0.4-3.8-0.7-5.6c-0.3-1.8,0.3-2.5,2.1-2.4c4.4,0.3,8.8,0.4,13.3,0
			c1.9-0.2,2.5,0.7,2.1,2.6c-0.4,2-0.6,4.1-0.8,6.2c-0.1,1.1-0.6,2.4,1.2,3c1,0.3,0.8,1.4,0.2,2.2c-2.3,3-1.7,6,1.5,8
			c0.8,0.5,1.6,0.9,2.5,1.4c2.3,1.3,3.2,3.2,3.1,5.9c-0.2,10-0.4,20,0,30c0.1,2.9,0,5.8-0.4,8.7c-0.3,2.2-1.6,3.6-3.8,4
			c-8,1.4-15.9,1.4-23.9,0.1c-2.7-0.5-4-2.1-4.3-4.8C84.2,135,85.2,129,84.8,121.6z M108.1,92.8c-2.4,1.8-12.3,1.7-14.3-0.1
			c-0.6,2.6-2.7,3.8-4.8,4.8c-2.4,1.1-3.4,2.9-3.4,5.6c0.1,10.7,0.1,21.3,0.1,32c0,2.1,0.1,4.1,0.3,6.2c0.2,1.9,1.3,3,3.2,3.4
			c7.9,1.4,15.7,1.4,23.6-0.1c1.9-0.4,2.8-1.5,3.1-3.2c0.2-1.2,0.3-2.4,0.3-3.7c0.1-11.6,0.1-23.2,0.2-34.8c0-2.7-1.2-4.4-3.6-5.5
			C110.7,96.5,108.9,95.2,108.1,92.8z M101.1,75c-1.7,0-3.4,0.1-5.1,0c-2.1-0.2-3.2,0.2-2.5,2.7c0.5,1.8,0.6,3.7,0.7,5.6
			c0.1,1.6,0.7,2.2,2.2,2.2c2.6-0.1,5.3-0.1,7.9,0c2.3,0.1,3.5-0.4,3.4-3c-0.1-2.4,1.8-5.5,0.4-7C106.8,74,103.6,75.2,101.1,75z
			 M101.2,88.5c-1.2,0-2.4,0-3.7,0c-1.4,0-2.4,0.1-2.2,2c0.1,1.6,0.4,2.7,2.4,2.5c2.1-0.2,4.3-0.1,6.5,0c1.8,0.1,2.4-0.5,2.5-2.4
			c0.1-2-0.9-2.2-2.4-2.1C103.2,88.5,102.2,88.5,101.2,88.5z M92.7,86.6c0,0.2,0,0.3-0.1,0.5c5.6,0,11.1,0,16.7,0c0-0.2,0-0.3,0-0.5
			C103.8,86.6,98.3,86.6,92.7,86.6z"/>
		<path d="M100.9,101.5c1,3.5,3.5,4.2,6.5,4.7c3.8,0.6,4.9,2.2,4.6,6.4c-0.1,1.7-0.9,3.8,2.3,3.3c1.1-0.2,1.1,0.9,1.1,1.6
			c0.1,7.1,0.3,14.3,0.1,21.4c-0.1,3.6-1.8,4.9-5.4,5.2c-3.5,0.3-6.9,0.6-10.5-0.1c-1.4-0.3-3.7,0.6-5.6,0.5
			c-5.4-0.1-7.6-2.5-7.7-7.9c-0.1-6.6,0.6-13.2,0.1-19.8c-0.1-1.4,0.5-1.9,1.8-1.8c1.6,0.2,1.8-0.6,1.8-2c0-5.7,0.5-6.2,6-7.2
			C98.5,105.5,100.3,104.4,100.9,101.5z M99.9,127.6L99.9,127.6c0.3,0.7,0.9,1.2,1.7,0.6c1.8-1.2,3.8-1.4,5.9-1
			c1.2,0.2,2.2-0.4,2.3-1.9c0.4-4.6,0.8-9.2,1.1-13.8c0.2-2.6-1.2-4-3.8-4.4c-1.9-0.3-4-0.4-5.5-2c-0.6-0.7-1.1-0.4-1.7,0.1
			c-1.2,1.2-2.8,1.4-4.4,1.7c-4.2,0.8-5,1.9-4.7,6.2c0.3,3.9,0.7,7.7,0.9,11.5c0.1,1.8,0.9,2.6,2.6,2.6
			C96.4,127.4,98.2,127.1,99.9,127.6z M97.6,134.7c0.8-0.2,1.2-0.7,1.2-1.6c0-0.9-0.6-1.4-1.5-1.3c-0.8,0.1-1.4,0.6-1.3,1.5
			C96.1,134.2,96.7,134.7,97.6,134.7z"/>
		<path d="M106.8,118.1c-2.6-0.5-4.3,0-4.2,2.9c0,0.7-0.6,1.4-1.4,1.5c-0.6,0.1-1.2-0.1-1.4-0.7c-0.3-0.9,0.4-1.3,1.1-1.7
			c0.8-0.5,1.2-0.9,0.3-1.9c-1-1.2-0.4-2,1.2-2.2c1-0.1,2.2,0.5,3.1-0.7c0.4-0.5,0.7,0.3,0.4,0.7
			C105.1,117.2,106.6,117.1,106.8,118.1z"/>
		<path d="M94.8,117c0.1-0.7-0.1-1.8,1.1-1.4c1,0.3,2.8,0.3,2.3,2.1c-0.2,0.6-1.5,1-2.4,1.1C94.5,118.9,95,117.7,94.8,117z"/>
		<path d="M93.2,113.9c1.2,3.7-0.1,7.5,1.2,11.2C92.8,123.9,92.4,120.6,93.2,113.9z"/>
		<path d="M99.9,127.6c-0.8-1.6-2.9-0.7-4.2-2.7c3.5,1.4,6.7,0.8,9.8,1C103.6,126.5,101.6,126.6,99.9,127.6
			C99.9,127.5,99.9,127.6,99.9,127.6z"/>
	</g>
</g>
<g id="bulle1">
	<path d="M112.5,66.8c-0.5-2.4-1.4-4.6-4-5.6c2-0.3,2.9-1.6,3.5-3.2c0.3,0.1,0.5,0.1,0.6,0.3c1.6,2.6,1.6,3.3,0.4,6.2
		C112.8,65.1,112.7,65.9,112.5,66.8z"/>
</g>
<g id="bulle2">
	<path d="M92.8,59.5c-2.3-1.5-1.5-2.8,0-4.1C93.8,56.7,95.5,58.1,92.8,59.5z"/>
</g>
<g id="bulle3">
	<path d="M85.1,69.7c-0.3,0.8-0.7,1.6-1.4,1.6c-0.5-0.1-1.3-1-1.3-1.6c0-0.6,0.8-1.1,1.3-1.7C84.2,68.5,84.6,69.1,85.1,69.7z"/>
</g>
</svg>
