<?xml version="1.0" encoding="utf-8"?>
<!-- Generator: Adobe Illustrator 24.0.0, SVG Export Plug-In . SVG Version: 6.00 Build 0)  -->
<svg version="1.1" xmlns="http://www.w3.org/2000/svg" xmlns:xlink="http://www.w3.org/1999/xlink" x="0px" y="0px"
	 viewBox="0 0 247 281" style="enable-background:new 0 0 247 281;" xml:space="preserve">
<style type="text/css">
	.st0{fill:url(#SVGID_1_);}
	.st1{fill:#827397;}
	.st2{font-family:'Girassol-Regular';}
	.st3{font-size:28.9047px;}
	.st4{fill:#D8B9C3;}
</style>
<g id="cardNom">
	<linearGradient id="SVGID_1_" gradientUnits="userSpaceOnUse" x1="124.507" y1="165.1219" x2="122.9628" y2="259.8326">
		<stop  offset="0" style="stop-color:#150C27"/>
		<stop  offset="0.8298" style="stop-color:#302A57"/>
		<stop  offset="1" style="stop-color:#363062"/>
	</linearGradient>
	<path class="st0" d="M221.5,259H25.9c-6.6,0-11.9-5.3-11.9-11.9v-65.2c0-6.6,5.3-11.9,11.9-11.9h195.6c6.6,0,11.9,5.3,11.9,11.9
		v65.2C233.4,253.7,228.1,259,221.5,259z"/>
	<text transform="matrix(1 0 0 1 49.5912 243.7607)" class="st1 st2 st3">Krum, Viktor</text>
</g>
<g id="starlight2">
</g>
<g id="starlight1">
</g>
<g id="cardA">
	<g>
		<path class="st1" d="M200.2,207.7H46.3c-19,0-34.4-15.4-34.4-34.4V35C12,16,27.4,0.6,46.3,0.6h153.9c19,0,34.4,15.4,34.4,34.4
			v138.3C234.6,192.3,219.2,207.7,200.2,207.7z"/>
	</g>
	<g>
		<path class="st4" d="M102.4,115.3c-0.7,1.6-1.4,3.2-2.1,4.8c7.8-0.5,15.8-0.8,23.5-0.2c4.7,0.3,9.5,1,14,2.4
			c4.1,1.3,9,3.1,11.6,6.6c1,1.4-0.7,3.3-2.2,2.8c-2.2-0.7-3.9-2-6-3c-2-1-4.1-1.7-6.2-2.3c-4.3-1.2-8.7-1.8-13.2-2
			c-7.9-0.4-15.7,0.1-23.6,0.4c0,0.1-0.1,0.2-0.1,0.2c-1.3,3.1-2.5,6.2-3.4,9.4c-1,3.3-1.4,6.6-2.1,10c-0.4,2.2-3.5,1.5-3.6-0.5
			c-0.4-6.5,2.3-13.1,4.8-19c-0.4,0-0.9,0-1.3,0c-2,0-2.9-2.4-1.6-3.8c2.7-2.8,5.5-5.6,8.2-8.3c1.2-2.6,2.4-5.2,3.6-7.9
			c6.2-13.2,12.6-26.2,19.4-39.1c0.8-1.5,3-0.2,2.3,1.4c-6,12.6-11.9,25.3-17.6,38.1c15.4-14.8,31.5-28.8,47.9-42.5
			c1.6-1.4,4,0.9,2.4,2.4C138.5,81.4,119.5,97.4,102.4,115.3z"/>
	</g>
</g>
</svg>
