<?xml version="1.0" encoding="utf-8"?>
<!-- Generator: Adobe Illustrator 24.0.0, SVG Export Plug-In . SVG Version: 6.00 Build 0)  -->
<svg version="1.1" xmlns="http://www.w3.org/2000/svg" xmlns:xlink="http://www.w3.org/1999/xlink" x="0px" y="0px"
	 viewBox="0 0 247 281" style="enable-background:new 0 0 247 281;" xml:space="preserve">
<style type="text/css">
	.st0{fill:url(#SVGID_1_);}
	.st1{fill:#827397;}
	.st2{font-family:'Girassol-Regular';}
	.st3{font-size:28.9047px;}
	.st4{fill:#D8B9C3;}
</style>
<g id="cardNom">
	<linearGradient id="SVGID_1_" gradientUnits="userSpaceOnUse" x1="123.4516" y1="165.1219" x2="121.9074" y2="259.8326">
		<stop  offset="0" style="stop-color:#150C27"/>
		<stop  offset="0.8298" style="stop-color:#302A57"/>
		<stop  offset="1" style="stop-color:#363062"/>
	</linearGradient>
	<path class="st0" d="M220.5,259H24.8c-6.6,0-11.9-5.3-11.9-11.9v-65.2c0-6.6,5.3-11.9,11.9-11.9h195.6c6.6,0,11.9,5.3,11.9,11.9
		v65.2C232.4,253.7,227,259,220.5,259z"/>
	<text transform="matrix(1 0 0 1 57.3951 243.7607)" class="st1 st2 st3">Ollivander</text>
</g>
<g id="starlight2">
</g>
<g id="starlight1">
</g>
<g id="cardA">
	<g>
		<path class="st1" d="M199.3,207.2H45.4c-19,0-34.4-15.4-34.4-34.4V34.5c0-19,15.4-34.4,34.4-34.4h153.9c19,0,34.4,15.4,34.4,34.4
			v138.3C233.7,191.8,218.3,207.2,199.3,207.2z"/>
	</g>
	<g>
		<path class="st4" d="M137.4,99.6c-2.2,6.6-4.6,13.1-7.6,19.3c-2.9,6.1-15.3,30.4-24,17.7c-3.7-5.5-2.6-13.8-1.9-19.9
			c0.8-7.4,2.2-14.8,4.3-22c1.4-4.9,2.9-10.9,5.8-15.5c-0.3,0.2-0.7,0.5-1,0.7c-2,1.5-4.6-1.9-2.7-3.5c5.5-4.5,12.8-8.6,20.1-9.3
			c6.8-0.7,10.5,5,10.9,11.2C141.8,85.5,139.7,92.8,137.4,99.6z M136.7,77.1c-0.3-1.9-1.1-4.1-2.9-5c-2.2-1.2-5.2,0-7.4,0.7
			c-1.7,0.6-3.4,1.2-5.1,2c0.4,0.2,0.9,0.4,1.3,0.7c2.1,1.7,1.9,4.2,1.3,6.5c-0.4,1.4-2.4,0.8-2.2-0.6c0.3-1.5,0.6-3.9-1.6-3.6
			c-1,0.1-1.1,0.4-1.7,1.1c-0.9,1.2-1.7,2.6-2.3,3.9c-1.3,2.7-2.1,5.5-3,8.3c-1.9,6-3.3,12.1-4.3,18.3c-0.9,5.6-1.6,11.4-1.4,17.1
			c0.2,3.7,2,12.7,7.2,7.7c7.2-6.9,11.6-17.3,15.1-26.5c1.9-5,3.8-10.1,5.2-15.4C136.2,87.6,137.5,82.1,136.7,77.1z"/>
	</g>
</g>
</svg>
