<?xml version="1.0" encoding="utf-8"?>
<!-- Generator: Adobe Illustrator 24.0.0, SVG Export Plug-In . SVG Version: 6.00 Build 0)  -->
<svg version="1.1" xmlns="http://www.w3.org/2000/svg" xmlns:xlink="http://www.w3.org/1999/xlink" x="0px" y="0px"
	 viewBox="0 0 247 281" style="enable-background:new 0 0 247 281;" xml:space="preserve">
<style type="text/css">
	.st0{fill:url(#SVGID_1_);}
	.st1{fill:#827397;}
	.st2{font-family:'Girassol-Regular';}
	.st3{font-size:28.9047px;}
	.st4{fill:#D8B9C3;}
</style>
<g id="cardNom">
	<linearGradient id="SVGID_1_" gradientUnits="userSpaceOnUse" x1="123.4516" y1="165.1219" x2="121.9074" y2="259.8326">
		<stop  offset="0" style="stop-color:#150C27"/>
		<stop  offset="0.8298" style="stop-color:#302A57"/>
		<stop  offset="1" style="stop-color:#363062"/>
	</linearGradient>
	<path class="st0" d="M220.5,259H24.8c-6.6,0-11.9-5.3-11.9-11.9v-65.2c0-6.6,5.3-11.9,11.9-11.9h195.6c6.6,0,11.9,5.3,11.9,11.9
		v65.2C232.4,253.7,227,259,220.5,259z"/>
	<text transform="matrix(1 0 0 1 67.2803 243.7607)" class="st1 st2 st3">Queudver</text>
</g>
<g id="starlight2">
</g>
<g id="starlight1">
</g>
<g id="cardA">
	<g>
		<path class="st1" d="M199.8,207.1H45.9c-19,0-34.4-15.4-34.4-34.4V34.4C11.6,15.4,26.9,0,45.9,0h153.9c19,0,34.4,15.4,34.4,34.4
			v138.3C234.2,191.7,218.8,207.1,199.8,207.1z"/>
	</g>
	<g>
		<path class="st4" d="M137.9,121.8c-2.5,5.3-5.8,10.4-9.9,14.7c3.5,3.3,7.7,5.5,12.2,4.3c1.5-0.4,2.1,1.5,1,2.3
			c-4.2,3-9.3,0.7-12.9-2.1c-0.9-0.7-1.8-1.5-2.6-2.3c-0.8,0.7-1.6,1.4-2.5,2c-5.9,4.4-15.6,7.5-20.6,0.1c-2-3-2.6-6.8-2.7-10.3
			c-0.2-4.3,0.1-8.6,0.6-12.9c1-8.5,3.2-16.8,6.7-24.6c1.8-4,3.9-7.8,6.3-11.4c2.3-3.4,4.8-6.9,8-9.4c2.6-2.1,6.3-3.7,9.6-2.2
			c3.1,1.4,4.3,4.6,4.6,7.8c0.4,4.2-0.5,8.7-1.3,12.9c-0.9,4.8-2.4,9.4-4.2,14c-0.6,1.6-3.2,0.9-2.6-0.7c2.9-7.8,5.4-17,4.8-25.5
			c-0.1-1.7-0.5-3.7-2-4.8c-1.7-1.2-3.7-0.6-5.3,0.4c-3.4,2-5.9,5.7-8.1,8.8c-8,11.6-12.3,25.5-13.1,39.5c-0.3,5.2-1.5,15,4.1,18
			c4.8,2.6,10.6-1.1,14.7-4.8c-1.8-2.1-3.4-4.4-4.7-6.9c-1-1.8,1.7-3.3,2.7-1.6c1.1,1.9,2.6,4.1,4.3,6.2c0.2-0.2,0.5-0.5,0.7-0.7
			c4.5-5,7.8-11.1,10.3-17.3c2.8-7.1,5-14.7,5.4-22.4c0.4-7.1-0.7-14.8-4.8-20.7c-3.7-5.2-10.9-8-16.3-3.5c-2,1.6-4.4-0.8-2.8-2.8
			c5.8-7.2,16.7-3.8,21.7,2.4c6.1,7.6,7.4,18.3,6.4,27.7C144.6,104.9,141.8,113.6,137.9,121.8z"/>
	</g>
</g>
</svg>
