<?xml version="1.0" encoding="utf-8"?>
<!-- Generator: Adobe Illustrator 24.0.0, SVG Export Plug-In . SVG Version: 6.00 Build 0)  -->
<svg version="1.1" xmlns="http://www.w3.org/2000/svg" xmlns:xlink="http://www.w3.org/1999/xlink" x="0px" y="0px"
	 viewBox="0 0 247 281" style="enable-background:new 0 0 247 281;" xml:space="preserve">
<style type="text/css">
	.st0{fill:url(#SVGID_1_);}
	.st1{fill:#827397;}
	.st2{font-family:'Girassol-Regular';}
	.st3{font-size:28.9047px;}
	.st4{fill:#D8B9C3;}
</style>
<g id="cardNom_1_">
	<g id="cardNom">
		
			<linearGradient id="SVGID_1_" gradientUnits="userSpaceOnUse" x1="124.3051" y1="116.8777" x2="122.7609" y2="22.167" gradientTransform="matrix(1 0 0 -1 0 282)">
			<stop  offset="0" style="stop-color:#150C27"/>
			<stop  offset="0.8298" style="stop-color:#302A57"/>
			<stop  offset="1" style="stop-color:#363062"/>
		</linearGradient>
		<path class="st0" d="M221.3,259H25.7c-6.6,0-11.9-5.3-11.9-11.9v-65.2c0-6.6,5.3-11.9,11.9-11.9h195.6c6.6,0,11.9,5.3,11.9,11.9
			v65.2C233.2,253.7,227.9,259,221.3,259z"/>
		<text transform="matrix(1 0 0 1 54.8889 243.7607)" class="st1 st2 st3">Détraqueur</text>
	</g>
</g>
<g id="cardA_1_">
	<g id="cardA">
		<g>
			<path class="st1" d="M200,207.1H46.1c-19,0-34.4-15.4-34.4-34.4V34.4C11.7,15.4,27.1,0,46.1,0H200c19,0,34.4,15.4,34.4,34.4
				v138.3C234.4,191.7,219,207.1,200,207.1z"/>
		</g>
		<g>
			<path class="st4" d="M160,93.4c-2.9,11.6-11.1,21.5-19.5,29.8c-4.3,4.3-9,8.2-13.9,11.9c-5,3.7-10.1,7.3-16,9.4
				c-9.4,3.4-21.8,1.4-25.3-9.2c-0.6-1.8,2.2-2.9,3-1.3c2.1,4.3,6.8,6.9,11.5,7.4c5.6,0.7,11.1-1.6,15.8-4.4
				c8.9-5.2,17-12,24.2-19.4c7.1-7.3,13.9-15.7,16.5-25.7c2.3-9,0.6-21.3-8.4-26.1c-10.3-5.6-20.2,4.7-26.5,11.7
				c-1.2,1.4-3.3-0.7-2-2c4.4-5,8.9-10.1,15.2-12.7c5.5-2.3,11.9-2.3,16.9,1.3C160.5,70.6,162.5,83.2,160,93.4z M108.1,132.6
				c1.8-5.5,4.2-10.8,6.3-16.2c1.9-5.1,3.8-10.2,5.7-15.4c1.9-5.3,3.8-10.6,5.6-15.9c0.9-2.7,1.8-5.3,2.7-8c0.8-2.5,1.4-5.1,2.6-7.4
				c0.8-1.6,2.9-0.4,2.7,1.1c-0.4,2.9-1.7,5.8-2.6,8.5c-0.9,2.7-1.7,5.3-2.6,8c-1.7,5.2-3.5,10.3-5.3,15.5
				c-1.9,5.3-3.8,10.6-5.8,15.8c-1.9,5.1-3.7,10.3-5.9,15.3C110.5,135.8,107.4,134.5,108.1,132.6z"/>
		</g>
	</g>
</g>
<g id="detrak">
	<g id="starlight2">
	</g>
	<g id="starlight1">
	</g>
	<g>
		<path d="M101.3,138.9c2,0.6,4,0.6,5.2,2.8c-1.6,0.6-3.3,0.9-4.5,0.1c-2.4-1.7-3.9-0.4-5.8,0.8c-2.7,1.7-5.4,3.5-8.9,3.4
			c4.7-1.5,8.7-4.3,13.1-7.8c-4.1-0.8-7.5-1.5-11-2.1c-1.2-0.2-1.7,0.9-2.2,1.7c-0.7,1-1.4,2.1-2.7,2.2c-4.7,0.3-9.2-0.6-13.6-2.2
			c-0.6-0.2-1.1-0.8-1.2-1.5c-1-7.4-2.7-14.8-1.7-22.3c2.5-19.1,18.1-28.7,36.7-22.9c6.9,2.1,12.3,6.2,16.6,11.9
			c0.5,0.7,1,1.4,1.7,2.3c1.5-3.1,3.1-5.8,2.7-9.2c-0.2-2,1.1-3.1,2.6-4.2c1.8,3.8-2.3,5.9-2,9.1c1.1,0.6,2.6-0.4,3.8,0.7
			c-1,1.4-2.4,2-3.9,2.3c-2.4,0.5-2.8,2-2.2,3.9c3.5,10.2-0.9,18.6-6.2,26.5c-2.9,4.4-7.8,4.3-12.6,4
			C104.3,138.5,103,137.7,101.3,138.9z M122.4,123.1c-2.2-0.2-4.5,1.1-6.7-0.1c-0.5-0.3-1.1-0.1-1.4,0.5c-3.1,4.6-6.5,9-10.4,13.2
			c7.8,1.6,11.9-0.2,15.3-6.5C120.3,127.9,121.3,125.4,122.4,123.1c1.2-4.6,3-9.2,0.7-14.5c-1.8,3.2-3.5,6-5.1,8.8
			c-0.5,0.9-1,1.9-1.6,2.8C118.4,121.6,121.4,120.3,122.4,123.1z M106.5,122.3c2.3,1.1,1.2,4.1,3.1,5.4c3.1-3.9,5.5-8,8-12
			c0.9-1.4,1.1-2.7,0.4-4.3c-0.7-1.8-1.2-3.6-0.3-5.6c2,1,1.4,3.1,2.5,4.3c2.3-3,2.3-3,0.5-5.7c-3-4.3-6.9-7.7-11.7-10
			c-16-7.7-35.9-3.3-39.6,19c1.8-1.4,3.6-1.7,5.1-0.1c0.9,0.9,0.6,2.1,0,3.1c-1.4,2.3-3.4,0.9-5.1,0.6c-0.6,6,1,18.2,2.6,19.9
			c1-0.7,0.1-2.5,1.6-2.8c1.2,1.1-1.1,3.2,0.9,3.7c2.3,0.6,0.6-2.8,2.5-3c1,1-0.8,3.1,1.2,3.7c2.5,0.7,1.2-2.5,2.7-2.8
			c1,1-0.5,2.8,1.1,3.5c1.1,0.4,2.5,0.2,3-0.9c1.9-4,5.2-3.3,8.5-2.8c2.3,0.3,4.6,0.7,6.9,1c3,0.4,7-4.6,6-7.5
			C105.5,126.7,105,124.5,106.5,122.3z"/>
	</g>
</g>
<g id="Deye">
	<path d="M87.4,120.4c-1.7,0.2-2.6-0.9-2.6-2.5c-0.1-2,1.1-3.1,3-3.1c1.6,0,2.8,0.8,2.8,2.6C90.6,119.4,89.4,120.3,87.4,120.4z"/>
</g>
</svg>
