<?xml version="1.0" encoding="utf-8"?>
<!-- Generator: Adobe Illustrator 24.0.0, SVG Export Plug-In . SVG Version: 6.00 Build 0)  -->
<svg version="1.1" xmlns="http://www.w3.org/2000/svg" xmlns:xlink="http://www.w3.org/1999/xlink" x="0px" y="0px"
	 viewBox="0 0 247 281" style="enable-background:new 0 0 247 281;" xml:space="preserve">
<style type="text/css">
	.st0{fill:url(#SVGID_1_);}
	.st1{fill:#827397;}
	.st2{font-family:'Girassol-Regular';}
	.st3{font-size:28.9047px;}
	.st4{fill:#D8B9C3;}
</style>
<g id="cardNom">
	<linearGradient id="SVGID_1_" gradientUnits="userSpaceOnUse" x1="123.4516" y1="165.1219" x2="121.9074" y2="259.8326">
		<stop  offset="0" style="stop-color:#150C27"/>
		<stop  offset="0.8298" style="stop-color:#302A57"/>
		<stop  offset="1" style="stop-color:#363062"/>
	</linearGradient>
	<path class="st0" d="M220.5,259H24.8c-6.6,0-11.9-5.3-11.9-11.9v-65.2c0-6.6,5.3-11.9,11.9-11.9h195.6c6.6,0,11.9,5.3,11.9,11.9
		v65.2C232.4,253.7,227,259,220.5,259z"/>
	<text transform="matrix(1 0 0 1 55.1553 243.7607)" class="st1 st2 st3">Pattenrond</text>
</g>
<g id="starlight2">
</g>
<g id="starlight1">
</g>
<g id="cardA">
	<g>
		<path class="st1" d="M199.4,207.3H45.5c-19,0-34.4-15.4-34.4-34.4V34.6c0-19,15.4-34.4,34.4-34.4h153.9c19,0,34.4,15.4,34.4,34.4
			v138.3C233.8,191.9,218.4,207.3,199.4,207.3z"/>
	</g>
	<g>
		<path class="st4" d="M145.3,81.2c-7.8,16.5-21.6,31.1-37.9,39.3c-1.9,10.1-3.6,20.2-5.9,30.2c-0.4,1.5-2.9,1.2-2.8-0.4
			c0.8-10.5,2.7-20.9,4.9-31.2c-0.1-0.5,0-1.1,0.3-1.5c0.5-2.3,1-4.6,1.5-6.9c2.9-13.2,6.3-26.4,10.1-39.4c0.5-1.8,3.3-1,2.8,0.8
			c-3.4,13-6.5,26-9.1,39.2c-0.2,1.1-0.4,2.2-0.7,3.3c6.1-3.9,11.9-8.4,17.1-13.6c5.5-5.6,10.3-12,14.2-18.9
			c3.3-6,8.2-17.7-0.9-21.4c-3.6-1.4-7.8-0.9-11.5-0.2c-3.9,0.8-7.7,2.1-11.3,3.9c-3.5,1.8-6.7,4-9.5,6.6c-2.8,2.5-7.1,6.4-7,10.4
			c0.1,1.9-2.8,1.9-2.9,0c-0.2-5,4.3-9.5,7.6-12.7c3.5-3.4,7.7-6.2,12.1-8.3c7.2-3.4,17.7-6.6,25.3-2.7
			C150.6,62.2,148.9,73.7,145.3,81.2z"/>
	</g>
</g>
</svg>
