<?xml version="1.0" encoding="utf-8"?>
<!-- Generator: Adobe Illustrator 24.0.0, SVG Export Plug-In . SVG Version: 6.00 Build 0)  -->
<svg version="1.1" xmlns="http://www.w3.org/2000/svg" xmlns:xlink="http://www.w3.org/1999/xlink" x="0px" y="0px"
	 viewBox="0 0 247 281" style="enable-background:new 0 0 247 281;" xml:space="preserve">
<style type="text/css">
	.st0{fill:url(#SVGID_1_);}
	.st1{fill:#827397;}
	.st2{font-family:'Girassol-Regular';}
	.st3{font-size:28.9047px;}
	.st4{fill:#D8B9C3;}
</style>
<g id="cardNom">
	<linearGradient id="SVGID_1_" gradientUnits="userSpaceOnUse" x1="123.4516" y1="165.1219" x2="121.9074" y2="259.8326">
		<stop  offset="0" style="stop-color:#150C27"/>
		<stop  offset="0.8298" style="stop-color:#302A57"/>
		<stop  offset="1" style="stop-color:#363062"/>
	</linearGradient>
	<path class="st0" d="M220.5,259H24.8c-6.6,0-11.9-5.3-11.9-11.9v-65.2c0-6.6,5.3-11.9,11.9-11.9h195.6c6.6,0,11.9,5.3,11.9,11.9
		v65.2C232.4,253.7,227,259,220.5,259z"/>
	<text transform="matrix(1 0 0 1 91.8492 243.7607)" class="st1 st2 st3">Zarbi</text>
</g>
<g id="starlight2">
</g>
<g id="starlight1">
</g>
<g id="cardA">
	<g>
		<path class="st1" d="M199.1,207.8H45.2c-19,0-34.4-15.4-34.4-34.4V35.1c0-19,15.4-34.4,34.4-34.4h153.9c19,0,34.4,15.4,34.4,34.4
			v138.3C233.5,192.4,218.1,207.8,199.1,207.8z"/>
	</g>
	<g>
		<path class="st4" d="M155.1,57.4c-1,4.4-3.2,8.3-5.5,12.2c-2.4,4-4.8,7.9-7.3,11.8c-5.1,8.1-10.3,16.1-15.6,24.1
			c-7.5,11.3-15.2,22.4-23.2,33.4c3.6-2.3,7.3-4.4,11.2-6.1c7.6-3.4,18.7-7.7,26-1.5c1.4,1.2-0.1,3.8-1.8,3.2
			c-4-1.4-7.9-1.8-12.1-0.9c-4.1,0.9-8.1,2.6-11.9,4.4c-8,3.8-15.2,8.8-21.6,14.9c-1.8,1.7-5.2-0.6-3.6-2.8
			c11.3-15,22.3-30.3,32.8-45.9c5.2-7.7,10.3-15.4,15.2-23.2c2.5-3.9,4.9-7.8,7.4-11.7c2-3.2,4-6.3,5.4-9.8
			c-12.9,3-25.2,8.3-36.4,15.3c-1.5,0.9-2.8-1.4-1.3-2.3c12.3-8.1,25.8-13.6,40-17.2C154.2,54.8,155.3,56,155.1,57.4z"/>
	</g>
</g>
</svg>
