<?xml version="1.0" encoding="utf-8"?>
<!-- Generator: Adobe Illustrator 24.0.0, SVG Export Plug-In . SVG Version: 6.00 Build 0)  -->
<svg version="1.1" xmlns="http://www.w3.org/2000/svg" xmlns:xlink="http://www.w3.org/1999/xlink" x="0px" y="0px"
	 viewBox="0 0 247 281" style="enable-background:new 0 0 247 281;" xml:space="preserve">
<style type="text/css">
	.st0{fill:url(#SVGID_1_);}
	.st1{fill:#827397;}
	.st2{font-family:'Girassol-Regular';}
	.st3{font-size:28.9047px;}
	.st4{fill:#D8B9C3;}
</style>
<g id="cardNom_1_">
	<g id="cardNom">
		
			<linearGradient id="SVGID_1_" gradientUnits="userSpaceOnUse" x1="124.0051" y1="116.8776" x2="122.4609" y2="22.1669" gradientTransform="matrix(1 0 0 -1 0 282)">
			<stop  offset="0" style="stop-color:#150C27"/>
			<stop  offset="0.8298" style="stop-color:#302A57"/>
			<stop  offset="1" style="stop-color:#363062"/>
		</linearGradient>
		<path class="st0" d="M221,259H25.4c-6.6,0-11.9-5.3-11.9-11.9v-65.2c0-6.6,5.3-11.9,11.9-11.9H221c6.6,0,11.9,5.3,11.9,11.9v65.2
			C232.9,253.7,227.6,259,221,259z"/>
		<text transform="matrix(1 0 0 1 36.8889 243.7607)" class="st1 st2 st3">Elfe de maison</text>
	</g>
</g>
<g id="cardA_1_">
	<g id="starlight2">
	</g>
	<g id="starlight1">
	</g>
	<g id="cardA">
		<g>
			<path class="st1" d="M200.2,207.7H46.3c-19,0-34.4-15.4-34.4-34.4V35C12,16,27.4,0.7,46.3,0.7h153.9c19,0,34.4,15.4,34.4,34.4
				v138.3C234.6,192.3,219.2,207.7,200.2,207.7z"/>
		</g>
		<g>
			<path class="st4" d="M159.9,63.7c-4,1.7-8.7,2.1-13,2.9c-4.4,0.8-8.8,1.5-13.2,2.1c-4,0.6-8,1.2-11.9,1.7
				c-2.7,10.9-6.5,21.5-10.8,31.8c2.2-0.8,4.4-1.5,6.6-2.4c5.3-2,10.8-4.8,16.4-5.9c1.9-0.4,3.1,2.2,1.4,3.2
				c-4.8,2.8-10.6,4.3-15.8,6.3c-3.6,1.3-7.2,2.9-10.9,4.2c-5,11.5-10.6,22.7-16.3,33.9c5.1-2.2,10.3-4.4,15.5-6.5
				c3.6-1.5,7.1-3,10.7-4.5c3.2-1.4,6.6-3.4,10.1-3.7c1.7-0.1,2.6,2.2,1.4,3.3c-2.6,2.3-6.5,3.3-9.6,4.6c-3.6,1.5-7.1,3-10.7,4.5
				c-7.1,3-14.2,6.1-21.4,8.9c-1.9,0.7-3.4-1.7-2.5-3.3c6.5-11.7,12.9-23.6,18.6-35.9c-0.4,0.1-0.9,0.2-1.3,0.4
				c-2,0.5-3.3-2.4-1.4-3.3c1.6-0.8,3.3-1.6,5.1-2.3c4.8-10.7,8.9-21.7,12-33c-3.9,0.5-7.7,0.9-11.6,1.4c-2.6,0.3-2.5-3.8,0-4
				c8.8-1,17.6-2.3,26.3-3.7c4.2-0.7,8.4-1.4,12.6-2.2c4.1-0.8,8.5-2.1,12.7-2.1C160.7,60.2,161.8,62.9,159.9,63.7z"/>
		</g>
	</g>
</g>
<g id="balais">
	<g>
		<path d="M151.3,138.1c-0.2-0.1-1.4,1-0.7-0.5c0.1-0.2,0-0.3-0.1-0.4c-0.2-0.2-0.3,0.1-0.5,0.1c-0.3,0.1-0.2,0.4-0.1,0.5
			c0.6,1.8,1.1,3.6,1.8,5.4c0.7,1.8,2.2,3.2,3,5c0.1,0.3,0.6,0.6,0.2,1c-0.5,0.6-1.2,0.7-1.8,0.8c-0.5,0.1-0.6-0.5-0.7-0.8
			c-0.1-1.5-0.5-2.9-0.7-4.4c-0.2-1.7-0.9-3.3-1.5-4.9c-0.7-1.8-1-3.6-2-5.3c-0.7-1.3-1.5-2.6-2.9-3.4c-0.1-0.1-0.2-0.2-0.4,0
			c0,0,0,0.1,0,0.1c0,0.1,0.1,0.1,0.1,0.2c-0.7,0.2-0.2,0.6-0.1,0.8c1.1,2.2,2.2,4.3,3,6.6c0.1,0.2,0.1,0.5,0.4,0.4
			c0.3-0.1,0.4-0.4,0.2-0.6c-0.4-0.5-0.4-0.9-0.3-1.5c0-0.2-0.1-0.5-0.2-0.6c-1.2-0.1,0-0.7-0.2-1.1c-0.2-0.4-1.3-0.1-0.7-1
			c0.2-0.3-0.1-0.6-0.1-0.8c0.5,0.7,1.2,1.2,1.1,2.1c0,0.3,0.1,0.7,0.5,0.9c0.4,0.2,0.3,0.3,0.1,0.7c-0.4,0.6,0.7,0.9,0.6,1
			c-0.3,0.4-0.6,0.7-0.1,1.1c0.3,0.3,1,0.3,0.2,0.9c0,0,0,0.2,0.1,0.3c0.1,0.3,0.9,0.3,0.4,1c-0.2,0.3,0.6,0.5,0.4,1
			c-0.5,0.1-0.4-0.3-0.6-0.5c-0.2-0.3-0.1-0.9-0.8-0.8c-0.4,0-0.1-0.4,0-0.7c0.2-0.3,0-0.6-0.1-0.8c-0.1-0.2-0.3-0.1-0.4,0
			c-0.4,0.1-0.2,0.5-0.2,0.7c0.3,2.4,0.4,4.8,2,6.8c0.9,1.1,1.7,2.3,2.6,3.4c0.5,0.6,0.4,1-0.1,1.3c-0.2,0.1-0.3,0.3-0.4,0.4
			c-0.5,0.7-1,0.3-1.2-0.2c-0.4-1.4-1.3-2.6-1-4.1c0-0.2,0-0.4-0.1-0.5c-1.5-1.9-1.8-4.1-2-6.4c-0.3-2.3-1.2-4.4-2.2-6.4
			c-0.3,0.3,0,0.7-0.3,1.2c-0.3-1.5-0.4-2.9-1.2-4.1c0.8,2.5,0.3,5.1,0.9,7.6c0.6,2.7,1.2,5.4,2.7,7.7c0.7,1.2,1.2,2.4,1.9,3.6
			c0.2,0.4,0.4,1,0,1.4c-0.2,0.2-0.6,0.5-0.9,0.3c-0.5-0.2-1.1-0.5-1.1-1.2c0-3.3-1.2-6.2-2.2-9.2c-0.8-2.5-1-5-1.2-7.6
			c0-0.8-0.2-1.6-0.6-2.6c-0.8,2.9-1.4,5.6-0.2,8.3c0.9,2.1,1,4.4,1.3,6.7c0.1,0.6,0.2,1.3,0.7,1.8c0.7,0.8,0.5,2,1,2.9
			c0.3,0.5-0.4,0.7-0.8,0.8c-0.4,0.2-0.8,0.3-1.1-0.2c-0.6-1.1-0.8-2.3-0.3-3.5c0.2-0.5,0.3-0.9,0.2-1.3c-0.4-2.7-0.5-5.4-1.8-8
			c0.3,0.7-0.1,1.4,0.5,2c0,0,0,0.2,0,0.3c-0.1,0.2-0.4-0.3-0.4,0.1c0,0.2,0.3,0.3,0.4,0.5c0.1,0.1,0.3,0.3,0.1,0.5
			c-0.1,0.2-0.4-0.1-0.9,0c1.4,0.5,0.4,1.6,1,2.2c-0.3-0.6-1.6-0.6-1.1-1.8c0.2-0.3,0-0.4-0.3-0.4c0,0-0.1-0.1-0.2-0.1
			c0.6-0.7-0.2-1.5,0.2-2.2c0.2-0.3,0.3-0.5-0.1-0.6c-0.2,0-0.3-0.2-0.2-0.3c1-1.4-0.5-2.5-0.3-3.8c-0.5,1.1-0.7,2.3-0.6,3.5
			c0.1,1.6,0.2,3.3,0.6,4.8c0.3,1.2,1.1,2.3,1.7,3.4c0.3,0.6,0.4,1.3,0.1,1.6c-0.4,0.5-1.1,1-1.8,0.8c-0.6-0.1-1-0.7-0.9-1.4
			c0.1-1.3-0.4-2.6,0.6-4c0.4-0.6-0.1-1.9-0.3-2.8c-0.6-3.1,0-6.1,1.1-9c0.6-1.5,0.5-2.9-0.6-4.2c-0.9-1.1-1.7-2.3-2.6-3.6
			c1.3,0.4,1.8,1.5,2.5,2.3c-0.1-1.2-1.1-2-1.1-3.3c0.4,0.9,0.9,1.7,1.5,2.8c-0.3-1.6-0.9-2.9-1-4.3c1,2,1,4.4,2.5,6.4
			c0.2-1.8,0.1-3.6,0.2-5.5c0.5,0.9,0.1,1.6,0.4,2.4c0.5-0.8,0.9-1.6,1.1-2.5c0.1,1.3-0.3,2.6-0.5,3.8c-0.1,0.3-0.7,1.1,0.4,0.9
			c0.2,0,0.3,0.2,0.2,0.4c-0.2,0.4,0,0.6,0.3,0.7c0.2,0.1,0.3,0.2,0.2,0.4c-0.4,0.9-0.4,1,0.7,0.9c0.1,0,0.1,0,0.2,0
			c0,0.4-0.5,0.2-0.6,0.5c1.3,1.3,2.6,2.7,3.3,4.5c0.2,0.6,0.8,1.1,1.3,1.2C151.3,137,151.2,137.6,151.3,138.1L151.3,138.1z
			 M142.8,130.8c0.2,2.1-1.8,4-0.5,6.2c0.2-1.1,0.5-2.1,0.7-3.1C143.1,132.9,143.4,131.9,142.8,130.8z"/>
		<path d="M147.5,143.3c-1.3-1.5-1.7-3.1-1.9-4.7C146.6,139.9,147.5,141.3,147.5,143.3z"/>
		<path d="M152.1,139.3c0.3,0.3,1.3,0.2,0.7,1.1c0,0.1,0,0.3,0.1,0.3c1,0.5-0.1,1.4,0.6,2c-0.5,0-0.5-0.1-0.6-0.3
			c0-0.2,0.1-0.7,0-0.7C151.8,141,152.6,139.9,152.1,139.3C152.1,139.2,152.1,139.3,152.1,139.3z"/>
		<path d="M142.3,122.8c0.5,1.5,0.5,3.1,0.5,4.7C142.5,126,142.3,124.4,142.3,122.8z"/>
		<path d="M151.3,138.2c0.6-0.2,1.1-0.4,0.7,0.6c-0.1,0.1,0,0.3,0.1,0.5c0,0,0,0,0,0c-0.2,0.2-0.2,0.6-0.5,0.5
			c-0.3-0.1-0.2-0.4-0.1-0.6C151.9,138.7,151.3,138.5,151.3,138.2C151.3,138.1,151.3,138.2,151.3,138.2z"/>
		<path d="M141.6,122L141.6,122c-0.5,0.1-1-0.2-1.1-0.7L125.7,49c-0.1-0.5,0.2-1,0.7-1.1l0,0c0.5-0.1,1,0.2,1.1,0.7l14.8,72.2
			C142.4,121.4,142.1,121.9,141.6,122z"/>
	</g>
</g>
</svg>
