<?xml version="1.0" encoding="utf-8"?>
<!-- Generator: Adobe Illustrator 24.0.0, SVG Export Plug-In . SVG Version: 6.00 Build 0)  -->
<svg version="1.1" xmlns="http://www.w3.org/2000/svg" xmlns:xlink="http://www.w3.org/1999/xlink" x="0px" y="0px"
	 viewBox="0 0 247 281" style="enable-background:new 0 0 247 281;" xml:space="preserve">
<style type="text/css">
	.st0{fill:url(#SVGID_1_);}
	.st1{fill:#827397;}
	.st2{font-family:'Girassol-Regular';}
	.st3{font-size:28.9047px;}
	.st4{fill:#D8B9C3;}
</style>
<g id="cardNom_1_">
	<g id="cardNom">
		
			<linearGradient id="SVGID_1_" gradientUnits="userSpaceOnUse" x1="124.4051" y1="116.8784" x2="122.8609" y2="22.1677" gradientTransform="matrix(1 0 0 -1 0 282)">
			<stop  offset="0" style="stop-color:#150C27"/>
			<stop  offset="0.8298" style="stop-color:#302A57"/>
			<stop  offset="1" style="stop-color:#363062"/>
		</linearGradient>
		<path class="st0" d="M221.4,259H25.8c-6.6,0-11.9-5.3-11.9-11.9v-65.2c0-6.6,5.3-11.9,11.9-11.9h195.6c6.6,0,11.9,5.3,11.9,11.9
			v65.2C233.3,253.7,228,259,221.4,259z"/>
		<text transform="matrix(1 0 0 1 74.4379 243.7607)" class="st1 st2 st3">Fumseck</text>
	</g>
</g>
<g id="cardA_1_">
	<g id="starlight2">
	</g>
	<g id="starlight1">
	</g>
	<g id="cardA">
		<g>
			<path class="st1" d="M200.4,208H46.5c-19,0-34.4-15.4-34.4-34.4V35.3c0-19,15.4-34.4,34.4-34.4h153.9c19,0,34.4,15.4,34.4,34.4
				v138.3C234.7,192.6,219.3,208,200.4,208z"/>
		</g>
		<g>
			<path class="st4" d="M148.3,94.3c-6.6,0.9-13.3,1.4-20,1.9c-3.3,0.3-6.6,0.5-10,0.8c-1.2,0.1-2.5,0.2-3.7,0.4
				c-1.4,3.9-2.7,7.8-4.1,11.7c-4.4,12-9.1,23.9-14.1,35.6l0,0c-0.1,0.2-0.1,0.4-0.2,0.5c-1.1,2.5-4.4,0.5-4-1.7
				c1.6-9.6,3.7-19.2,6.3-28.6c0.6-2.3,4-1.3,3.5,1c-0.6,3-1.2,6-1.7,9.1c2.4-5.9,4.7-11.8,6.9-17.8c1.2-3.2,2.4-6.4,3.5-9.6
				c-0.8,0-1.5-0.1-2.2-0.2c-1.7-0.3-1.4-2.7,0-3.2c1.2-0.4,2.4-0.6,3.7-0.8c0.5-1.5,1-2.9,1.6-4.4c1.1-3.1,2.2-6.2,3.2-9.3
				c0.9-2.7,1.6-5.8,3.1-8.3c0.7-1.2,2.9-0.8,2.8,0.8c-0.3,3.2-1.8,6.3-2.8,9.3c-1,3.1-2.1,6.2-3.1,9.3c-0.2,0.7-0.5,1.5-0.8,2.2
				c0.8,0,1.5-0.1,2.2-0.2c3.2-0.3,6.3-0.6,9.5-0.9c6.6-0.6,13.3-1.4,19.9-1.6C149.9,90.4,150.5,94,148.3,94.3z M153.6,65.9
				c-4.1,1.6-9.4,1.2-13.8,1.4c-4.5,0.2-9,0.3-13.4,0.4c-4.5,0.1-9,0.1-13.5,0.1c-2.4,0-4.8,0-7.2,0c-2.1,0-4.2,0.2-6.3-0.3
				c-1.3-0.3-1.3-2.3,0-2.6c2.2-0.6,4.5-0.4,6.7-0.5s4.5-0.1,6.7-0.2c4.5-0.1,9-0.2,13.5-0.4c4.5-0.2,9-0.4,13.4-0.6
				c4.5-0.2,9.5-1.2,13.8-0.3C155.3,63.2,154.9,65.4,153.6,65.9z"/>
		</g>
	</g>
</g>
<g id="plume">
	<g>
		<path d="M148.8,182.1c0.1,0,0.2,0,0.3,0c4.1,1.5,7.1,4.4,6.6,6.7c-0.8,3.7-4.1,4.7-7.1,5.3c-5.3,1.1-10.6,1.7-16,2.4
			c-0.8,0.1-1.6,0-1.9-0.9c2.1-0.2,4.4,0,3.7-3.3c-0.2-0.8,0.6-1.4,1.5-1.5c1-0.1,2,0.6,1.9,1.4c-0.4,3.2,1.7,2.3,3.3,2.1
			c2-0.2,4-0.6,5.9-1c1.1-0.2,2.8-0.2,2.9-1.2c0.3-2.4,1.8-2.6,3.6-2.9c-2.2-0.3-4.3-0.5-6.4-0.8c-1.3-0.2-1.9-0.1-1.7,1.4
			c0.2,1.3-0.8,1.9-1.9,1.9c-1.1,0-2-0.7-1.8-1.9c0.3-1.5-0.5-2.4-1.7-1.9c-3.7,1.2-7-1.3-10.5-0.8c-3.1,0.4-6.1,1.3-9-0.9
			c0,0-0.2,0.2-0.3,0.4c1.8,1.5,3.6,3,5.4,4.5c-0.9-0.3-1.9-0.6-3.2-1c1.3,2.7,3.4,4.5,4,7.3c-6.6,0.6-13.2,1.2-19.6,0.2
			c-6.4-1-12.3-3.2-14.3-10.4c-0.3-1.3-1.3-1-2.2-1c-1.4,0-2.9,0.4-4.5-0.9c1.5-1.5,3.4-1,5-1.1c1.4-0.1,2.6-0.1,3.1-1.8
			c1.6-5.4,6-7,11-7.1c9.1-0.2,18.2,0.7,27.2,2.1c1.2,0.2,2,0.9,3,1.3c-1.1-0.8-2.1-0.2-3.1,0.1c-0.7-0.7-1.6-1.1-2.4-0.3
			c-1.9,2-3.7,4.2-5.8,6.6c3.4,0,3.5-3.3,5.6-4c0.1,1.6-1.9,2.3-1.8,4.3c1.6-0.9,2.8-2.1,4.4-2.4c-0.4,0.9-0.8,1.7-1.3,2.8
			c1.4,0,2.7,0.6,3.8-0.7c0.6-0.7,1.6-1,2.5-0.5c4.6,3,9.9,2,14.9,2.7c0.6,0.1,1.4,0.3,1.8-0.4c0.4-0.6-0.2-1-0.5-1.4
			c-0.8-0.8-1.3-0.3-1.9,0.3c-0.8,0.7-1.8,1.1-2.7,0.3c-1-0.8-0.8-1.7-0.4-2.7C148.7,183.2,148.7,182.6,148.8,182.1z M105.1,186
			c3.1,3.7,4.7,8.8,9.5,11C111.8,193,109.4,188.6,105.1,186z M97.3,186.4c4,6.1,6.7,9.1,8.6,9.5C103.2,190.6,100.3,187.3,97.3,186.4
			z M105.3,176.8c-3.2,0.7-5.2,2.9-7.1,5c-0.5,0.5-1.5,1.1-0.9,1.9c0.7,0.8,1.7,0.3,2.3-0.4C101.6,181.1,103.4,178.9,105.3,176.8z
			 M109,181.1c2.3-0.8,3.9-2.5,5.4-4.3C112.1,177.5,110.5,179.2,109,181.1z"/>
		<path d="M145.8,180.9c-0.4,0.1-1,0.2-1.1,0.4c-0.4,1.4-0.6,3-2.6,2.9c-2-0.1-1.6-2-2.2-3.1c-1.7,0.2-2.9,1.9-4.7,1.5
			C138.4,180,141.7,177.7,145.8,180.9z"/>
		<path d="M127.8,190.1c0-1.4,0.7-2.1,1.8-2.1c1,0,2,0.5,1.9,1.8c-0.1,1.2-0.8,1.9-1.9,2C128.5,191.8,127.8,191.1,127.8,190.1z"/>
	</g>
</g>
</svg>
