<?xml version="1.0" encoding="utf-8"?>
<!-- Generator: Adobe Illustrator 24.0.0, SVG Export Plug-In . SVG Version: 6.00 Build 0)  -->
<svg version="1.1" xmlns="http://www.w3.org/2000/svg" xmlns:xlink="http://www.w3.org/1999/xlink" x="0px" y="0px"
	 viewBox="0 0 247 281" style="enable-background:new 0 0 247 281;" xml:space="preserve">
<style type="text/css">
	.st0{fill:url(#SVGID_1_);}
	.st1{fill:#827397;}
	.st2{font-family:'Girassol-Regular';}
	.st3{font-size:28.9047px;}
	.st4{fill:#D8B9C3;}
</style>
<g id="cardNom">
	<linearGradient id="SVGID_1_" gradientUnits="userSpaceOnUse" x1="123.4516" y1="165.1219" x2="121.9074" y2="259.8326">
		<stop  offset="0" style="stop-color:#150C27"/>
		<stop  offset="0.8298" style="stop-color:#302A57"/>
		<stop  offset="1" style="stop-color:#363062"/>
	</linearGradient>
	<path class="st0" d="M220.5,259H24.8c-6.6,0-11.9-5.3-11.9-11.9v-65.2c0-6.6,5.3-11.9,11.9-11.9h195.6c6.6,0,11.9,5.3,11.9,11.9
		v65.2C232.4,253.7,227,259,220.5,259z"/>
	<text transform="matrix(1 0 0 1 24.5313 243.7607)" class="st1 st2 st3">Weasley, Ronald</text>
</g>
<g id="starlight2">
</g>
<g id="starlight1">
</g>
<g id="cardA">
	<g>
		<path class="st1" d="M199.2,206.9H45.4c-19,0-34.4-15.4-34.4-34.4V34.2c0-19,15.4-34.4,34.4-34.4h153.9c19,0,34.4,15.4,34.4,34.4
			v138.3C233.6,191.5,218.2,206.9,199.2,206.9z"/>
	</g>
	<g>
		<path class="st4" d="M104.2,90.3c0.2-1.2,2.2-0.9,2.1,0.3c-1,10.1-2.4,20.2-4.3,30.2C100,131,97.4,141,94.8,151
			c-1.5-0.4-2.9-0.8-4.4-1.2c6.4-20.3,15.9-39.5,28.1-57c1.3-1.8,3.7-1.4,4.5,0.6c1.7,4.3,0.6,9.5,0.4,14
			c-0.3,5.1-0.6,10.3-0.9,15.4c-0.6,10.3-1.2,20.6-1.8,30.9c-1.7-0.2-3.3-0.5-5-0.7c6.4-16.6,12.4-33.3,18.1-50.2
			c5.7-16.9,10.6-34,16.6-50.8c0.9-2.4,4.5-1.5,3.9,1.1c-4,17.3-9.8,34.3-15.5,51.1c-5.7,16.9-11.8,33.6-18.2,50.2
			c-1,2.5-5.2,2.4-5-0.7c0.6-10,1.2-19.9,1.8-29.9c0.3-4.8,0.6-9.7,0.9-14.5c0.2-2.6,0.3-5.1,0.5-7.7c0.1-2.4,0.4-4.6-0.5-6.9
			c1.5,0.2,3,0.4,4.5,0.6c-12,17.1-21.4,35.9-27.9,55.7c-0.9,2.8-5.4,1.5-4.4-1.2C97.3,130.7,101.3,110.3,104.2,90.3z"/>
	</g>
</g>
</svg>
