<?xml version="1.0" encoding="utf-8"?>
<!-- Generator: Adobe Illustrator 24.0.0, SVG Export Plug-In . SVG Version: 6.00 Build 0)  -->
<svg version="1.1" xmlns="http://www.w3.org/2000/svg" xmlns:xlink="http://www.w3.org/1999/xlink" x="0px" y="0px"
	 viewBox="0 0 247 281" style="enable-background:new 0 0 247 281;" xml:space="preserve">
<style type="text/css">
	.st0{fill:url(#SVGID_1_);}
	.st1{fill:#827397;}
	.st2{font-family:'Girassol-Regular';}
	.st3{font-size:28.9047px;}
	.st4{fill:#D8B9C3;}
	.st5{fill:none;stroke:#827397;stroke-miterlimit:10;}
</style>
<g id="cardNom_1_">
	<g id="cardNom">
		
			<linearGradient id="SVGID_1_" gradientUnits="userSpaceOnUse" x1="124.5072" y1="116.8785" x2="122.963" y2="22.1678" gradientTransform="matrix(1 0 0 -1 0 282)">
			<stop  offset="0" style="stop-color:#150C27"/>
			<stop  offset="0.8298" style="stop-color:#302A57"/>
			<stop  offset="1" style="stop-color:#363062"/>
		</linearGradient>
		<path class="st0" d="M221.5,259H25.9c-6.6,0-11.9-5.3-11.9-11.9v-65.2c0-6.6,5.3-11.9,11.9-11.9h195.6c6.6,0,11.9,5.3,11.9,11.9
			v65.2C233.5,253.7,228.1,259,221.5,259z"/>
		<text transform="matrix(1 0 0 1 16.9531 243.7607)" class="st1 st2 st3">Albus Dumbledore</text>
	</g>
</g>
<g id="cardA_1_">
	<g id="cardA">
		<g>
			<path class="st1" d="M200.5,207.6H46.6c-19,0-34.4-15.4-34.4-34.4V34.9c0-19,15.4-34.4,34.4-34.4h153.9c19,0,34.4,15.4,34.4,34.4
				v138.3C234.9,192.2,219.5,207.6,200.5,207.6z"/>
		</g>
		<g>
			<path class="st4" d="M151.5,62.8c-1.6,4.3-3.2,8.6-4.8,12.8c-3.2,8.7-6.4,17.5-9.3,26.3c-2.9,8.8-5.6,17.7-7.8,26.7
				c-1.8,7.2-3.2,14.4-4.4,21.7c0.4,2.3,0,4.5-1.3,6.6c-1.2,1.9-4.9,1.3-4.6-1.2c2-17.7,7-35.2,12.6-52c0.5-1.4,0.9-2.8,1.4-4.2
				c-4.3,0.9-8.7,1.4-13,1.9c-5.9,10.2-11.3,20.6-16.8,31c-0.8,1.5-3.3,0.4-2.7-1.1c4.1-10,9.2-19.8,14.6-29.2
				c-7,0.9-13.9,1.9-20.9,2.8c-1.7,0.2-2.1-2.7-0.4-3c7.3-1.2,14.5-2.4,21.8-3.6c0.6-0.1,1.2-0.2,1.8-0.3c1.7-2.8,3.4-5.7,5.1-8.5
				c8.3-13.4,17.4-26.4,27.2-38.7c0.9-1.1,2.7-0.6,3.4,0.4C155.5,54.9,152.8,59.2,151.5,62.8z M147.7,60.5
				C140,70.6,132.7,81,126,91.8c-1.1,1.7-2.1,3.5-3.2,5.2c3.9-0.7,7.9-1.3,11.9-1.6c2-5.6,4-11.2,6.1-16.7c1.6-4.3,3.3-8.6,4.9-12.8
				C146.3,64.1,147,62.3,147.7,60.5z"/>
		</g>
	</g>
</g>
<g id="starlight_1_">
	<circle class="st5" cx="130.5" cy="104.1" r="69.3"/>
	<g id="starlight">
		<g>
			<path d="M54.9,85.8c3.7,1.6,5.6,3.7,4.2,8.4c2.6-2.1,4.3-4.6,7.4-2.1c-3.1-4.2,1.2-5.7,2.4-8.6c-3.5,0.4-7.6,3-8-3.9
				C58.8,82.4,60.1,87,54.9,85.8z"/>
			<path d="M65.5,77.3c2-10.8,3.8-20.9,5.7-31.1C68.3,50.6,64.4,72.6,65.5,77.3z"/>
			<path d="M81.7,50.1c-6,7.6-10.8,15.9-13.5,25.3C71.8,66.5,77.7,58.8,81.7,50.1z"/>
			<path d="M84.7,63.6c-5.7,3.6-10.2,8.6-14.1,14.1C75.6,73.3,80.9,69.3,84.7,63.6z"/>
		</g>
	</g>
	<rect y="0.5" class="st5" width="130.5" height="103.6"/>
</g>
</svg>
