<?xml version="1.0" encoding="utf-8"?>
<!-- Generator: Adobe Illustrator 24.0.0, SVG Export Plug-In . SVG Version: 6.00 Build 0)  -->
<svg version="1.1" xmlns="http://www.w3.org/2000/svg" xmlns:xlink="http://www.w3.org/1999/xlink" x="0px" y="0px"
	 viewBox="0 0 247 281" style="enable-background:new 0 0 247 281;" xml:space="preserve">
<style type="text/css">
	.st0{fill:url(#SVGID_1_);}
	.st1{fill:#827397;}
	.st2{font-family:'Girassol-Regular';}
	.st3{font-size:28.9047px;}
	.st4{fill:#D8B9C3;}
</style>
<g id="cardNom">
	<linearGradient id="SVGID_1_" gradientUnits="userSpaceOnUse" x1="123.4516" y1="165.1219" x2="121.9074" y2="259.8326">
		<stop  offset="0" style="stop-color:#150C27"/>
		<stop  offset="0.8298" style="stop-color:#302A57"/>
		<stop  offset="1" style="stop-color:#363062"/>
	</linearGradient>
	<path class="st0" d="M220.5,259H24.8c-6.6,0-11.9-5.3-11.9-11.9v-65.2c0-6.6,5.3-11.9,11.9-11.9h195.6c6.6,0,11.9,5.3,11.9,11.9
		v65.2C232.4,253.7,227,259,220.5,259z"/>
	<text transform="matrix(1 0 0 1 15.9615 243.7607)" class="st1 st2 st3">eXpecto Patronum</text>
</g>
<g id="starlight2">
</g>
<g id="starlight1">
</g>
<g id="cardA">
	<g>
		<path class="st1" d="M199.9,207.7H46c-19,0-34.4-15.4-34.4-34.4V35C11.6,16,27,0.6,46,0.6h153.9c19,0,34.4,15.4,34.4,34.4v138.3
			C234.3,192.3,218.9,207.7,199.9,207.7z"/>
	</g>
	<g>
		<path class="st4" d="M150.5,52.5c-1.5,4-3.9,7.8-5.9,11.6c-2,3.8-4,7.7-6,11.6c-4.2,8.3-8.3,16.6-12.4,25
			c0.8,6.3,1.8,12.7,3.5,18.8c0.9,3.3,2,6.6,3.6,9.7c1.5,3,3.6,5.6,5.2,8.4c0.7,1.3-0.8,3-2.1,2.1c-5.6-3.6-8.4-11.1-10.2-17.2
			c-1.5-5-2.4-10.1-3.1-15.2c-1.7,3.5-3.3,7.1-5,10.6c-6.5,14-12.4,28.4-19.3,42.2c-0.9,1.9-4.1,0.5-3.4-1.4
			c2.9-8.2,6.5-16.1,10.1-24.1c5.3-11.8,10.9-23.6,16.6-35.2c-2-16.6-2.4-33.4-1.1-50.2c0.2-2.3,3.8-2.3,3.6,0
			c-0.9,14.5-0.7,29,0.8,43.5c0.1-0.2,0.2-0.3,0.2-0.5c3.4-6.9,7-13.8,10.5-20.7c1.8-3.4,3.6-6.9,5.4-10.3c1.8-3.4,3.4-7.1,5.6-10.1
			C148.2,49.5,151.3,50.4,150.5,52.5z"/>
	</g>
</g>
</svg>
