<?xml version="1.0" encoding="utf-8"?>
<!-- Generator: Adobe Illustrator 24.0.0, SVG Export Plug-In . SVG Version: 6.00 Build 0)  -->
<svg version="1.1" xmlns="http://www.w3.org/2000/svg" xmlns:xlink="http://www.w3.org/1999/xlink" x="0px" y="0px"
	 viewBox="0 0 247 281" style="enable-background:new 0 0 247 281;" xml:space="preserve">
<style type="text/css">
	.st0{fill:url(#SVGID_1_);}
	.st1{fill:#827397;}
	.st2{font-family:'Girassol-Regular';}
	.st3{font-size:28.9047px;}
	.st4{fill:#D8B9C3;}
</style>
<g id="cardNom_1_">
	<g id="cardNom">
		
			<linearGradient id="SVGID_1_" gradientUnits="userSpaceOnUse" x1="123.9051" y1="116.8784" x2="122.3609" y2="22.1677" gradientTransform="matrix(1 0 0 -1 0 282)">
			<stop  offset="0" style="stop-color:#150C27"/>
			<stop  offset="0.8298" style="stop-color:#302A57"/>
			<stop  offset="1" style="stop-color:#363062"/>
		</linearGradient>
		<path class="st0" d="M220.9,259H25.3c-6.6,0-11.9-5.3-11.9-11.9v-65.2c0-6.6,5.3-11.9,11.9-11.9h195.6c6.6,0,11.9,5.3,11.9,11.9
			v65.2C232.8,253.7,227.5,259,220.9,259z"/>
		<text transform="matrix(1 0 0 1 75.2511 243.7607)" class="st1 st2 st3">Cracmol</text>
	</g>
</g>
<g id="cracmol">
	<g>
		<path d="M182.7,241.3c0.1,0.8,0.4,1.1,1.2,0.6c1.1-0.8,2.2-1.6,3.6-1.7c0.4,0,0.9-0.2,1,0.3c0.1,0.5-0.5,0.3-0.8,0.4
			c-1,0.1-1.9,0.4-2.8,0.8c-0.8,0.3-1.7,0.6-1.1,1.9c0.2,0.4-0.2,0.8-0.5,1.1c-0.7,0.8-0.5,2.5,0.3,3c0.9,0.5,1.7,0.4,2.3-0.4
			c0.4-0.6,0.9-1.2,1.4-1.9c-1,3.3-2.1,3.9-4.8,2.6c0.1,1.1-0.6,1.8-1.3,2.5c-0.5,0.5-0.8,0.9-0.1,1.5c0.7,0.7,0.5,1.5,0.3,2.3
			c-0.3,0.9-0.6,1.7-1.3,2.3c-0.9,0.9-1.4,1.8-0.6,3.3c-1.1-1.1-1.2-2-0.2-3.1c0.7-0.9,1.3-1.9,1.5-3c0.1-0.6,0.1-1.3-0.5-1.6
			c-0.7-0.4-0.9,0.3-1.2,0.6c-0.5,0.4-0.9,1-1.4,1.4c-0.8,0.6-1.1,1.3-1.1,2.3c0,1.4-1.5,2.8-3.3,3.2c-1.1,0.3-2.3,0.5-1.9,2.2
			c-0.6-0.8-0.6-1-0.1-1.7c0.5-0.6,1.1-0.9,1.9-1.1c1.1-0.2,1.9-0.8,2.5-1.8c0.3-0.5,0.6-1,0.2-1.5c-0.3-0.4-0.8,0.1-1.2,0.2
			c-3.7,1-6.6-1.9-5.7-5.7c0.1-0.3,0.5-0.7,0.1-1.1c-0.4-0.3-0.9-0.2-1.4,0c-1.3,0.5-2,1.6-2.6,2.8c-0.5,0.9-1.1,1.6-2.3,1.3
			c1.3,0,1.7-0.9,2.2-1.9c0.9-1.9,2.1-3.5,4.6-3.1c0.1,0,0.3,0,0.4-0.1c1.1-1.1,2.2-2.3,3.2-3.5c0.3-0.3,0-0.6-0.2-0.8
			c-0.8-0.9-1.8-0.8-2.8-0.5c-1.1,0.4-2.2,0.7-3.3,0.7c-0.8,0-1.6-0.2-2.3-1.2c2,1.3,3.8,0.7,5.5,0c1.2-0.5,2.4-0.6,3.4,0.5
			c0.5,0.6,0.9,0.2,1.3-0.2c0.7-0.7,1.4-1.3,2.7-0.8c-1.1-3.4,1.7-4,3.6-5.2c-0.3,0.3-0.6,0.6-1,0.8c-0.3,0.3-0.7,0.5-1.1,0.8
			c-0.5,0.4-1,0.9-1.1,1.6c-0.2,1.1,0.1,1.3,1.2,1.3C180.1,241.9,181.3,241,182.7,241.3L182.7,241.3z M178.1,252.6
			c1.2-1.2,2.2-2.1,3.1-3c0.6-0.6,0.8-1.2,0.1-1.9c-0.7-0.7-1.4-1.5-2.6-0.9c-0.2,0.1-0.4,0.3-0.4,0.6
			C178.3,249,178.2,250.6,178.1,252.6z M172.3,246.4c1.6,0.2,3.1-0.1,4.5-0.2c1.2-0.1,1.7-0.8,1.1-1.9c-0.7-1.3-1.9-1.6-3-0.7
			C173.9,244.3,173.2,245.4,172.3,246.4z M171.7,252.8c1-0.6,1.4-1.1,1.2-2.2c-0.3-2.5-0.3-2.2,2-2.3c0.1,0,0.3,0,0.4,0
			c0.9,0.1,1.4-0.4,1.7-1.3c-1.5,0.1-3,0.2-4.4,0.3c-0.4,0-0.9-0.1-0.9,0.6C171.7,249.4,171.7,251,171.7,252.8z M177,253.5
			c-0.7,0.1-1.3,0.1-1.8,0.1c-1.2,0.1-2.3,0.3-3.5,0.4c-0.5,0.1-0.9,0.3-1,0.7c0,0.4,0.5,0.5,0.8,0.7
			C173.3,256.3,175.4,255.6,177,253.5z M170.8,248.1c-1.7,1.7-2.1,3.8-1.3,5.4c0.2,0.3,0.3,0.8,0.8,0.7c0.4-0.1,0.6-0.5,0.6-0.9
			C170.9,251.6,170.9,249.9,170.8,248.1z M172.6,253.2c1.4-0.1,2.8-0.3,4.1-0.4c0.3,0,0.6-0.1,0.6-0.5c-0.1-1.4,0.4-2.8,0.2-4.4
			c-1,0.6-1,1.5-0.8,2.3c0.3,1.5-0.3,1.9-1.7,1.9C174.2,252.1,173.1,252.1,172.6,253.2z"/>
		<path d="M182.7,241.3c0.8-1.2,1.4-2.5,1.8-3.8c0.1-0.2,0.1-0.6,0.4-0.5c0.4,0.1,0.4,0.5,0.3,0.7
			C184.9,239.2,183.9,240.3,182.7,241.3C182.7,241.3,182.7,241.3,182.7,241.3z"/>
	</g>
</g>
<g id="cardA_1_">
	<g id="starlight2">
	</g>
	<g id="starlight1">
	</g>
	<g id="cardA">
		<g>
			<path class="st1" d="M200.9,207.1H47.1c-19,0-34.4-15.4-34.4-34.4V34.4C12.7,15.4,28.1,0,47.1,0H201c19,0,34.4,15.4,34.4,34.4
				v138.3C235.3,191.7,219.9,207.1,200.9,207.1z"/>
		</g>
		<g>
			<path class="st4" d="M134.5,126.5c-7.5,6.1-13.2,11.4-21.4,16.6c-5.2,3.3-13.2,9.1-19.3,4.4c-6-4.6-2.3-13.6-0.5-19.3
				c5-16.1,12.1-31.6,20.9-46c4.2-6.9,9-13.8,15.1-19.2c4.6-4,12.3-7.7,17.4-2.4c3.5,3.7,3,8.3,2.3,12.6c-1.2,7.3-9,20.7-13.6,18.1
				c-1.5-1.1-0.1-3.6,1.4-2.5c2.8,2,7.6-7.2,8.3-9c1.3-3.2,5.2-15.7-3-18c-3.6-1-7.6,1.6-10.1,3.8c-9.9,8.8-16.7,21.6-22.5,33.4
				c-3.1,6.4-5.9,12.9-8.4,19.5c-2.3,6.2-4.9,12.8-5.9,19.3c-0.4,2.5-0.2,6,2.9,6.5c2.5,0.4,5.3-1.1,7.4-2.3
				c6.1-3.5,12-7.6,17.8-11.6c5.9-4.1,11.8-8.5,17.4-12.9c5.5-4.4,10.8-9,16.6-13C157.9,104.1,157.4,107.8,134.5,126.5z"/>
		</g>
	</g>
</g>
</svg>
