<?xml version="1.0" encoding="utf-8"?>
<!-- Generator: Adobe Illustrator 24.0.0, SVG Export Plug-In . SVG Version: 6.00 Build 0)  -->
<svg version="1.1" xmlns="http://www.w3.org/2000/svg" xmlns:xlink="http://www.w3.org/1999/xlink" x="0px" y="0px"
	 viewBox="0 0 247 281" style="enable-background:new 0 0 247 281;" xml:space="preserve">
<style type="text/css">
	.st0{fill:url(#SVGID_1_);}
	.st1{fill:#827397;}
	.st2{font-family:'Girassol-Regular';}
	.st3{font-size:28.9047px;}
	.st4{fill:#D8B9C3;}
</style>
<g id="cardNom">
	<linearGradient id="SVGID_1_" gradientUnits="userSpaceOnUse" x1="123.4516" y1="165.1219" x2="121.9074" y2="259.8326">
		<stop  offset="0" style="stop-color:#150C27"/>
		<stop  offset="0.8298" style="stop-color:#302A57"/>
		<stop  offset="1" style="stop-color:#363062"/>
	</linearGradient>
	<path class="st0" d="M220.5,259H24.8c-6.6,0-11.9-5.3-11.9-11.9v-65.2c0-6.6,5.3-11.9,11.9-11.9h195.6c6.6,0,11.9,5.3,11.9,11.9
		v65.2C232.4,253.7,227,259,220.5,259z"/>
	<text transform="matrix(1 0 0 1 81.834 243.7607)" class="st1 st2 st3">Yaourt</text>
</g>
<g id="starlight2">
</g>
<g id="starlight1">
</g>
<g id="cardA">
	<g>
		<path class="st1" d="M199.2,207.3H45.3c-19,0-34.4-15.4-34.4-34.4V34.6c0-19,15.4-34.4,34.4-34.4h153.9c19,0,34.4,15.4,34.4,34.4
			v138.3C233.6,191.9,218.2,207.3,199.2,207.3z"/>
	</g>
	<g>
		<path class="st4" d="M102.5,68.6c-0.9,1.5-3.2,0.2-2.3-1.4c1.4-2.7,5-3,7.4-1.4c3.3,2.1,3.2,6.7,2.9,10.2
			c-0.6,5.3-1.6,10.6-2.9,15.8c-0.7,2.6-1.4,5.1-2.2,7.6c-0.7,2.4-1.6,5-0.5,7.4c-1.1-0.1-2.1-0.3-3.2-0.4
			c15.6-14.5,30-31.4,39.5-50.7c1,0.6,2.1,1.2,3.1,1.8c-8.6,14-15.3,29-19.9,44.8c-2.3,7.8-4,15.7-5.2,23.7
			c-1.2,8.2-1.6,16.5-2.2,24.8c-0.2,2.5-3.8,2.5-3.9,0c-0.9-16.6,2.4-33.8,7.1-49.6c4.8-16,11.9-31.5,21-45.5
			c1.3-1.9,4.2-0.2,3.1,1.8c-5.1,9.8-10.5,19.2-17.3,28c-6.6,8.6-14,16.7-22.4,23.8c-1.3,1.1-2.8,0.6-3.4-0.9
			c-1.4-3.3-0.5-6.8,0.7-10c1.4-3.9,2.6-7.8,3.5-11.9c0.9-4.1,1.8-8.3,2.1-12.4c0.1-1.7,0.3-4.1-1-5.5
			C105.4,67.5,103.4,67.1,102.5,68.6z"/>
	</g>
</g>
</svg>
