<?xml version="1.0" encoding="utf-8"?>
<!-- Generator: Adobe Illustrator 24.0.0, SVG Export Plug-In . SVG Version: 6.00 Build 0)  -->
<svg version="1.1" xmlns="http://www.w3.org/2000/svg" xmlns:xlink="http://www.w3.org/1999/xlink" x="0px" y="0px"
	 viewBox="0 0 247 281" style="enable-background:new 0 0 247 281;" xml:space="preserve">
<style type="text/css">
	.st0{fill:url(#SVGID_1_);}
	.st1{fill:#827397;}
	.st2{font-family:'Girassol-Regular';}
	.st3{font-size:28.9047px;}
	.st4{fill:#D8B9C3;}
</style>
<g id="cardNom">
	<linearGradient id="SVGID_1_" gradientUnits="userSpaceOnUse" x1="124.507" y1="165.1219" x2="122.9628" y2="259.8326">
		<stop  offset="0" style="stop-color:#150C27"/>
		<stop  offset="0.8298" style="stop-color:#302A57"/>
		<stop  offset="1" style="stop-color:#363062"/>
	</linearGradient>
	<path class="st0" d="M221.5,259H25.9c-6.6,0-11.9-5.3-11.9-11.9v-65.2c0-6.6,5.3-11.9,11.9-11.9h195.6c6.6,0,11.9,5.3,11.9,11.9
		v65.2C233.4,253.7,228.1,259,221.5,259z"/>
	<text transform="matrix(1 0 0 1 18.5912 243.7607)" class="st1 st2 st3">Lupin, Remus John</text>
</g>
<g id="starlight2">
</g>
<g id="starlight1">
</g>
<g id="cardA">
	<g>
		<path class="st1" d="M200.8,207.6H46.9c-19,0-34.4-15.4-34.4-34.4V34.9c0-19,15.4-34.4,34.4-34.4h153.9c19,0,34.4,15.4,34.4,34.4
			v138.3C235.2,192.2,219.8,207.6,200.8,207.6z"/>
	</g>
	<g>
		<path class="st4" d="M124.2,103c-4.8,12.8-8.6,25.9-12.9,38.8c8.3-3.4,16.8-6.4,25.5-8.5c1.9-0.5,2.7,2.3,0.8,2.9
			c-10,3.2-20,6.3-29.8,10.2c-1.8,0.7-2.6-2.2-0.8-2.9c0.4-0.2,0.8-0.3,1.2-0.5c2.5-14.4,7.4-28.4,12.7-41.9
			c2.6-6.7,5.4-13.3,8.4-19.8c1.6-3.4,3.2-6.7,4.8-10.1c1.5-3.1,2.9-6.6,5.1-9.3c0.9-1.1,2.7,0.1,2.3,1.4c-1,3.3-3.1,6.5-4.6,9.6
			c-1.5,3.2-3.1,6.5-4.5,9.8C129.5,89.4,126.8,96.2,124.2,103z"/>
	</g>
</g>
</svg>
