<?xml version="1.0" encoding="utf-8"?>
<!-- Generator: Adobe Illustrator 24.0.0, SVG Export Plug-In . SVG Version: 6.00 Build 0)  -->
<svg version="1.1" xmlns="http://www.w3.org/2000/svg" xmlns:xlink="http://www.w3.org/1999/xlink" x="0px" y="0px"
	 viewBox="0 0 247 281" style="enable-background:new 0 0 247 281;" xml:space="preserve">
<style type="text/css">
	.st0{fill:url(#SVGID_1_);}
	.st1{fill:#827397;}
	.st2{font-family:'Girassol-Regular';}
	.st3{font-size:28.9047px;}
	.st4{fill:#D8B9C3;}
</style>
<g id="cardNom">
	<linearGradient id="SVGID_1_" gradientUnits="userSpaceOnUse" x1="123.4516" y1="165.1219" x2="121.9074" y2="259.8326">
		<stop  offset="0" style="stop-color:#150C27"/>
		<stop  offset="0.8298" style="stop-color:#302A57"/>
		<stop  offset="1" style="stop-color:#363062"/>
	</linearGradient>
	<path class="st0" d="M220.5,259H24.8c-6.6,0-11.9-5.3-11.9-11.9v-65.2c0-6.6,5.3-11.9,11.9-11.9h195.6c6.6,0,11.9,5.3,11.9,11.9
		v65.2C232.4,253.7,227,259,220.5,259z"/>
	<text transform="matrix(1 0 0 1 64.5782 230.7607)"><tspan x="0" y="0" class="st1 st2 st3">Nick Quasi</tspan><tspan x="-3.8" y="25" class="st1 st2 st3">Sans-Tête</tspan></text>
</g>
<g id="starlight2">
</g>
<g id="starlight1">
</g>
<g id="cardA">
	<g>
		<path class="st1" d="M199.6,207H45.7c-19,0-34.4-15.4-34.4-34.4V34.3c0-19,15.4-34.4,34.4-34.4h153.9c19,0,34.4,15.4,34.4,34.4
			v138.3C233.9,191.6,218.6,207,199.6,207z"/>
	</g>
	<g>
		<path class="st4" d="M145.6,60c-1.8,7.4-4.7,14.5-7.1,21.8c-2.3,7-4.3,14-6.2,21.1c-3.9,14.5-6.9,29.1-9,43.9
			c-0.1,0.7-0.5,1-0.9,1.1c-0.7,0.9-2.3,0.7-2.8-0.5c-2.1-5.4-2.2-11.9-2.6-17.6c-0.4-5.9-0.6-11.8-0.6-17.8
			c-0.1-9.3,0.1-18.5,0-27.8c-0.8,2.8-1.6,5.7-2.4,8.6c-1.5,5.6-2.9,11.2-4.2,16.8c-1.4,5.8-2.6,11.6-3.8,17.4
			c-0.6,2.9-1.1,5.8-1.7,8.8c-0.5,2.8-0.7,6-1.8,8.7c-0.6,1.5-2.8,1.4-2.9-0.4c-0.2-2.9,0.7-6,1.3-8.8c0.6-2.9,1.2-5.8,1.8-8.7
			c1.2-5.8,2.5-11.6,4-17.4c1.5-5.9,3-11.8,4.7-17.7c0.8-2.9,1.6-5.7,2.5-8.6c0.7-2.4,1.3-5.1,2.4-7.4c0.2-1.5,2.6-1.4,2.7,0.2
			c0.8,11.9,0.8,23.8,1.1,35.7c0.1,5.9,0.4,11.9,0.8,17.8c0.2,2.3,0.5,4.6,0.8,6.9c1.9-11.7,4.3-23.4,7.2-34.9
			c1.9-7.3,4-14.4,6.2-21.6c2.3-7.1,4.5-14.3,8.1-20.9C144,57.7,145.9,58.6,145.6,60z"/>
	</g>
</g>
</svg>
