<?xml version="1.0" encoding="utf-8"?>
<!-- Generator: Adobe Illustrator 24.0.0, SVG Export Plug-In . SVG Version: 6.00 Build 0)  -->
<svg version="1.1" id="bold" xmlns="http://www.w3.org/2000/svg" xmlns:xlink="http://www.w3.org/1999/xlink" x="0px" y="0px"
	 viewBox="0 0 512 512" style="enable-background:new 0 0 512 512;" xml:space="preserve">
<style type="text/css">
	.st0{fill:#D8B9C3;}
</style>
<path class="st0" d="M378.7,192H256v-69.3c0-14.1-17-21.3-27.1-11.5L90.2,244.5c-3.1,3-4.9,7.2-4.9,11.5c0,4.4,1.8,8.5,4.9,11.5
	l138.7,133.3c10.1,9.7,27.1,2.6,27.1-11.5V320h122.7c14.7,0,26.7-12,26.7-26.7v-74.7C405.3,204,393.4,192,378.7,192z"/>
<path class="st0" d="M256,512C114.8,512,0,397.2,0,256S114.8,0,256,0s256,114.8,256,256S397.2,512,256,512z M256,42.7
	C138.4,42.7,42.7,138.4,42.7,256S138.4,469.3,256,469.3S469.3,373.6,469.3,256S373.6,42.7,256,42.7z"/>
</svg>
