<?xml version="1.0" encoding="utf-8"?>
<!-- Generator: Adobe Illustrator 24.0.0, SVG Export Plug-In . SVG Version: 6.00 Build 0)  -->
<svg version="1.1" xmlns="http://www.w3.org/2000/svg" xmlns:xlink="http://www.w3.org/1999/xlink" x="0px" y="0px"
	 viewBox="0 0 211.4 236" style="enable-background:new 0 0 211.4 236;" xml:space="preserve">
<style type="text/css">
	.st0{fill:#1E0734;}
	.st1{fill:#E898ED;}
	.st2{font-family:'WakingtheWitch';}
	.st3{font-size:21.9566px;}
	.st4{fill:none;stroke:#09040E;stroke-miterlimit:10;}
	.st5{fill:#5D5360;}
	.st6{fill:#4B3F4E;}
	.st7{fill:#6F6571;}
	.st8{fill:#AEDB81;}
	.st9{fill:#95CC81;}
	.st10{fill:url(#SVGID_1_);}
	.st11{fill:none;}
	.st12{fill:#3C163D;}
	.st13{fill:#CC84CA;}
	.st14{fill:#110C23;}
	.st15{font-size:181.3851px;}
</style>
<g id="cardTag">
	<g id="CalqueB">
		<path class="st0" d="M33,227.8c0,0-1,4.5,9.8,3.7s33.5-2.2,39.4-1.5s14.8,0,14.8,0s5.9-1.5,7.9,0l-2-4.5l4.9,4.5
			c0,0,11.8-1.5,14.8,0s5.9-3,5.9-3s3.9,2.2,11.8,1.5s19.7,0,19.7,0s9.8-0.7,16.7,3s5.9-3,5.9-3s6.9-1.5,6.9-4.5s3.9-5.2,3.9-10.5
			s-3-6.7-3-6.7s-26.6,0-27.6,0s25.6-0.7,26.6-1.5c1-0.7,2-8.2,2-8.2s-17.7-6-23.6-6s24.6,3.7,24.6,3.7s2-10.5,1-10.5
			s-22.6,1.5-22.6,1.5l22.6-3c0,0,1-22.4-2-22.4s-16.7-1.5-16.7-1.5h16.7c0,0,4.9-13.4,2-14.2c-3-0.7-4.9-1.5-4.9-1.5
			s3.9-3.7,3.9-4.5s-1-9,0-17.2s0-15.7,0-15.7s-2-16.4-1-19.4s-7.9,0-7.9,0l8.9-4.5c0,0,2-12.7,0-14.2S149.1,61,149.1,61
			s-24.6,0-28.5,0s-13.8-3.7-22.6-3.7s-65,1.5-65,1.5l-1,3.7l-3.9,3c0,0,1.5-0.4,0.5,10.1c0,0,2,1.5,2,5.2c0,0-2,0.7-2,4.5
			s0,20.2,1,20.9s2,2.2,0,4.5c-2,2.2,3.9,9,3,11.2c-1,2.2-4.9,5.2-1,10.5c3.9,5.2,0,8.2,1,8.2s3,0.7,5.9,1.5c2.9,0.8-9.8,0-9.8,5.2
			s-1,7.5,1,7.5s3,0,0,3s-1,10.5,3,12c3.9,1.5,1,8.2,1,8.2s3,3.7,0,5.2s1,3.7-1,6.7s4.9,6.7,3,14.2c0,0-7.9,1.5-6.9,4.5s3.9,0,3,6
			c-0.9,6,38.4,9.7,43.3,9.7s-40.4-3.7-41.3-3.7S33,227.8,33,227.8z"/>
		<g>
			<g>
				<text transform="matrix(1 0 0 1 69.3486 214.5308)" class="st1 st2 st3">Bieraubeurre</text>
			</g>
		</g>
	</g>
</g>
<g id="insects">
	<circle class="st4" cx="38.5" cy="166.7" r="31.5"/>
	<g>
		<g>
			<path class="st5" d="M40.5,201.3v1.5c0,0.3,0.2,0.6,0.5,0.8l2.5,1.5c0.1,0.1,0.2,0.2,0.2,0.3v0.9c0,0.2,0.1,0.3,0.3,0.3
				c0.2,0,0.3-0.1,0.3-0.3v-0.9c0-0.3-0.2-0.6-0.5-0.8l-2.5-1.5c-0.1-0.1-0.2-0.2-0.2-0.3v-1.5c0-0.2-0.1-0.3-0.3-0.3
				C40.6,201,40.5,201.1,40.5,201.3z"/>
			<path class="st5" d="M35.8,204.3v1.6c0,0.2,0.1,0.3,0.3,0.3c0.2,0,0.3-0.1,0.3-0.3v-1.6c0-0.1,0-0.1,0.1-0.2l1.7-2
				c0.1-0.1,0.1-0.3,0-0.4c-0.1-0.1-0.3-0.1-0.4,0l-1.7,2C35.9,203.9,35.8,204.1,35.8,204.3L35.8,204.3z"/>
			<path class="st5" d="M29,205.3c0,0.1,0,0.1,0.1,0.2c0.1,0.1,0.3,0.1,0.4,0l1.5-1.3c0.2-0.2,0.4-0.2,0.6-0.3l1.5-0.2
				c0.5-0.1,0.8-0.5,0.8-0.9v-1.3c0-0.2-0.1-0.3-0.3-0.3c-0.2,0-0.3,0.1-0.3,0.3v1.3c0,0.2-0.1,0.3-0.3,0.3l-1.5,0.2
				c-0.4,0-0.7,0.2-1,0.4l-1.5,1.3C29,205.1,29,205.2,29,205.3L29,205.3z"/>
		</g>
		<path class="st6" d="M44.7,196.6c0-0.1,0-0.2,0.1-0.3l2.3-1.6c0.1-0.1,0.3-0.1,0.4,0.1c0.1,0.1,0.1,0.3-0.1,0.4l-2.3,1.6
			c-0.1,0.1-0.3,0.1-0.4-0.1C44.7,196.7,44.7,196.7,44.7,196.6L44.7,196.6z"/>
		<path class="st6" d="M44.7,197.8c0-0.1,0-0.1,0.1-0.2c0.1-0.1,0.3-0.2,0.4-0.1l2.3,1.6c0.1,0.1,0.2,0.3,0.1,0.4
			c-0.1,0.1-0.3,0.2-0.4,0.1l-2.3-1.6C44.7,198,44.7,198,44.7,197.8z"/>
		<circle class="st7" cx="43.6" cy="197.2" r="1.9"/>
		<path class="st8" d="M42.6,197.2c0-2.7-3.6-4.3-3.6-4.3H33c-2.7,0-4.8,1.6-4.8,4.3c0,1.2,0.3,2.3,1,3.2c0.9,1.1,2.3,1.8,3.8,1.8
			h5.9C38.9,202.2,42.6,200,42.6,197.2L42.6,197.2z"/>
		<path class="st5" d="M40.5,193.2v-1.5c0-0.3,0.2-0.6,0.5-0.8l2.5-1.5c0.1-0.1,0.2-0.2,0.2-0.3v-0.9c0-0.2,0.1-0.3,0.3-0.3
			c0.2,0,0.3,0.1,0.3,0.3v0.9c0,0.3-0.2,0.6-0.5,0.8l-2.5,1.5c-0.1,0.1-0.2,0.2-0.2,0.3v1.5c0,0.2-0.1,0.3-0.3,0.3
			C40.6,193.5,40.5,193.4,40.5,193.2z"/>
		<path class="st5" d="M35.8,190.2v-1.6c0-0.2,0.1-0.3,0.3-0.3c0.2,0,0.3,0.1,0.3,0.3v1.6c0,0.1,0,0.1,0.1,0.2l1.7,2
			c0.1,0.1,0.1,0.3,0,0.4c-0.1,0.1-0.3,0.1-0.4,0l-1.7-2C35.9,190.6,35.8,190.4,35.8,190.2L35.8,190.2z"/>
		<path class="st5" d="M29,189.2c0-0.1,0-0.1,0.1-0.2c0.1-0.1,0.3-0.1,0.4,0l1.5,1.3c0.2,0.2,0.4,0.2,0.6,0.3l1.5,0.2
			c0.5,0.1,0.8,0.5,0.8,0.9v1.3c0,0.2-0.1,0.3-0.3,0.3c-0.2,0-0.3-0.1-0.3-0.3v-1.3c0-0.2-0.1-0.3-0.3-0.3l-1.5-0.2
			c-0.4,0-0.7-0.2-1-0.4l-1.5-1.3C29,189.3,29,189.2,29,189.2L29,189.2z"/>
		<path class="st9" d="M28.7,198.2c0-2.7,2.2-5,5-5h5.6l-0.4-0.9H33c-2.6,0-4.8,2.1-5,4.7l0,0.6c0.1,1.1,0.5,2.1,1.2,2.9
			C28.9,199.8,28.7,199,28.7,198.2L28.7,198.2z"/>
		<path class="st6" d="M40.4,196.9c-0.1-0.6-0.6-1.1-1.2-1.2c-0.7-0.1-1.4,0.3-1.7,0.9c-0.1,0.2-0.3,0.3-0.6,0.3h-8.9
			c0,0.1,0,0.2,0,0.3s0,0.2,0,0.3H37c0.2,0,0.5,0.1,0.6,0.4c0.2,0.5,0.8,0.9,1.4,0.9C39.9,198.8,40.7,197.9,40.4,196.9L40.4,196.9z"
			/>
		<path class="st5" d="M43.9,197.2c0-1.7-0.8-3.1-2.1-4l-2.5-0.3l-0.4,0.3v9h0C41.7,202.2,43.9,200,43.9,197.2z"/>
		<path class="st6" d="M38.9,193.2h2.9c-0.8-0.6-1.8-0.9-2.9-0.9L38.9,193.2L38.9,193.2z"/>
	</g>
</g>
<g id="cardB">
	<g id="CalqueA">
		
			<linearGradient id="SVGID_1_" gradientUnits="userSpaceOnUse" x1="112.6491" y1="246.9304" x2="110.7045" y2="34.9599" gradientTransform="matrix(1 0 0 -1 0 238)">
			<stop  offset="0" style="stop-color:#F098BC"/>
			<stop  offset="1" style="stop-color:#451A40"/>
		</linearGradient>
		<path class="st10" d="M21.2,9.3c0,0-4.9-1.1-4.1,10.8c0.8,11.9,2.4,36.6,1.6,43c-0.8,6.4,0,16.1,0,16.1s1.6,6.5,0,8.6l4.9-2.2
			L18.8,91c0,0,1.6,12.9,0,16.1s3.3,6.5,3.3,6.5s-2.4,4.3-1.6,12.9c0.8,8.6,0,21.5,0,21.5s0.8,10.8-3.3,18.3s3.3,6.5,3.3,6.5
			s1.6,7.5,4.9,7.5s5.7,4.3,11.4,4.3s7.3-3.2,7.3-3.2s0-29,0-30.1s0.8,28,1.6,29s9,2.2,9,2.2s6.5-19.4,6.5-25.8
			c0-6.5-4.1,26.9-4.1,26.9s11.4,2.2,11.4,1.1S66.9,160,66.9,160l3.3,24.7c0,0,24.5,1.1,24.5-2.2c0-3.2,1.6-18.3,1.6-18.3v18.3
			c0,0,14.7,5.4,15.5,2.2s1.6-5.4,1.6-5.4s4.1,4.3,4.9,4.3s9.8-1.1,18.8,0c9,1.1,17.1,0,17.1,0s18-2.2,21.2-1.1c3.3,1.1,0-8.6,0-8.6
			l4.9,9.7c0,0,13.9,2.2,15.5,0s7.3-47.3,7.3-47.3s0-26.9,0-31.2s4.1-15.1,4.1-24.7s-1.6-71-1.6-71l-4.1-1.1l-3.1-4.4
			c0,0,0.4,1.6-11,0.5c0,0-1.6,2.2-5.7,2.2c0,0-0.8-2.2-4.9-2.2s-22,0-22.9,1.1s-2.4,2.2-4.9,0s-9.8,4.3-12.2,3.2s-5.7-5.4-11.4-1.1
			c-5.7,4.3-9,0-9,1.1s-0.8,3.2-1.6,6.5c-0.8,3.2,0-10.8-5.7-10.8s-8.2-1.1-8.2,1.1s0,3.2-3.3,0S86.2,4.4,84.5,8.7
			c-1.6,4.3-9,1.1-9,1.1s-4.1,3.2-5.7,0c-1.6-3.2-4.1,1.1-7.3-1.1c-3.2-2.2-7.3,5.4-15.5,3.2c0,0-1.6-8.6-4.9-7.5
			c-3.3,1.1,0,4.3-6.5,3.2S24.9,49.6,24.9,55S29,10.9,29,9.8S21.2,9.3,21.2,9.3z"/>
		<g>
			<path class="st11" d="M132.5,46.9C132.8,46.6,132.6,46.7,132.5,46.9L132.5,46.9z"/>
			<path class="st12" d="M95.8,109.1L95.8,109.1c-0.1-0.1-0.1-0.1-0.2-0.1L95.8,109.1z"/>
		</g>
	</g>
	<g>
		<path class="st13" d="M46.8,17.8L42.4,9c-2.7,3.5-3.6,9.7-9.6,6.3c-1.8,6.6-3.5,12.8-5.2,19.2c3.5-2.8,5.6-5.8,6-11.1
			c0.3-3.2,5.2-5.7,8.2-8.7c0.6,4.7,1.2,9.4,8.2,6.8c0.3,0.6,0.6,1.1,0.9,1.7c-2.2,3.6-4.3,7.2-6.2,10.4c-2-1.2-3.6-2.2-5.4-3.4
			c-0.7,2.6-1.3,4.5-1.7,5.9c5.9,4.4,1.6,8,0.5,10.7c2.2,2.8,3.8,4.8,6,7.7c-1.3-7.1-2.1-13.4,4.8-19c1,9,1.8,16.7,2.7,25.1
			c1.2,0,3.4,0.1,5.7,0.2c-0.2,1.1-0.4,2.4-0.4,2c3.2,2.6,5.5,4.4,7.8,6.3c0.1-0.3,0.4-1.3,0.6-2.2c4.6,1.6,0.6,10.3,8.3,9.5
			c-0.6-1.4-1.1-2.5-1.6-3.7c5.6,0,6.5,0.7,8.5,6.8c1.4,4.2,6.1,8.4,8.5,7.1c-0.4-0.9-0.9-1.8-1.4-3c1.1,0.2,1.9,0.4,3.1,0.6
			c-0.7-1.6-1.3-2.9-1.5-3.3c2.1-0.4,3.8-0.8,5.5-1.1c-0.1,1.4-0.6,4.9-0.2,5c6.4,2.2,3.3,7.9,6.3,12c1-3.1-0.9-7.7,0.5-9.4
			c3.8-4.6,4.4,3.6,7.7,3.5c-0.6-1.2-1.1-2.2-1.7-3.5c1.6,0.1,3,0.3,4.4,0.4c-1.2-1.5-2.1-2.7-3.4-4.4c3.9,0.1,7.1,0.2,10.7,0.3
			c-2.7-7.2,2.1-4.9,5.5-5.2c-0.4,1.7-0.7,2.9-1.1,4.9c1.4-0.6,2.2-1,3-1.3c0,0,0,0,0,0.1c0,0,0-0.1,0-0.1c0,0,0,0,0,0.1
			c0.9-1.9,1.9-3.7,3-5.9c-5,0.4-9.4,0.8-14,1.2c0.9-1.6,1.8-3,3.3-5.5c-4.6,0.4-8.1,0.7-12.1,1c1.1-1.7,2.3-3.4,3.4-5.1
			c-0.3-0.2-0.5-0.5-0.8-0.7c-2.2,2.1-4.3,4.3-6.7,6.7c-2.2-1.7-4.8-3.7-7.5-5.7c-0.2,0.3-0.5,0.5-0.7,0.8c1.8,2.5,3.5,5.1,5.5,7.9
			c-4.9,1.7-5.9-1.4-7.1-4.5c-1.2-3.2-2.5-6.3-3.8-9.5c-0.5,0.1-1,0.2-1.5,0.3c-0.7,1.7-1.4,3.4-2.6,6c-1.8-2.9-3.2-5.1-4.5-7.2
			c0.2,2.1,0.5,4.1,0.7,6.3c-7.9,3.7-13.9,0.6-21.3-13c1.8,0.6,3.6,1,5.2,1.9c2,1.2,3.7,2.8,6.4,3.1c-1.6-1.2-3.2-2.4-5.2-4
			c3.6-3.3,6.6-0.2,9.6,1c2.1-1.1,4.2-2.3,6.2-3.3c-5.6-0.4-11.2-0.8-17.1-1.2c0.6-1.4,1-2.2,1.4-3.1c-3.2-0.7-6.4-1.5-10-2.3
			c0.1-1,0.3-2.9,0.6-4.8c-1.2-1-2.8-1.7-3.4-2.9c-0.7-1.4-0.6-3.2-0.9-5c2.8,1.7,5.4,3.3,8.1,5c-1-1.1-2-2.3-3.1-3.5
			c2.3-1.3,4.2-2.4,6.7-3.9c-4.5-2.1-8.1-3.8-12.6-5.9c2.8-2.2,4.7-3.7,7.1-5.5c1.3,2.1,2.5,4,3.6,5.8c-1.9-9.4-9.6-12.7-16.3-17.1
			C44.3,10.2,46.8,17.8,46.8,17.8z"/>
		<path class="st13" d="M195.2,18.3c-5.3,4-6.2,7.5-3.4,13.2c0,0,0,0,0,0c0,0,0,0,0,0c0.3-1.7,0.4-3.5,1.1-4.9
			c0.5-0.9,2-1.2,3.1-1.7c0.6,0.4,1.2,0.8,1.8,1.1c-0.5-1.8-1.1-3.5-1.6-5.3c3.6,6.2,1.7,9.6-4.4,10.8c0,0,0,0.1,0,0.1
			c0,0,0-0.1,0-0.1c-2.3,1.2-4.6,2.5-6.8,3.7c0.3,0.4,0.5,0.9,0.8,1.3c5.8-2.3,11.6-4.6,17.8-7.1c0.4-1.1,0.8-2.2,1.3-3.3
			c-1.7-0.4-3-1.5-3.4-4.8c1.8,0.7,3.3,1.2,4.7,1.7c0.2-0.6,0.2-1.1,0.2-1.5c-2-1.1-4-2.3-5.9-3.3c0.2-0.6,0.4-1.2,0.6-1.8
			c-0.3-0.9-0.7-1.8-1.2-2.7C198.9,15.4,197.1,16.9,195.2,18.3z"/>
	</g>
	<text transform="matrix(1 0 0 1 76.4122 167.9616)" class="st14 st2 st15">B</text>
</g>
</svg>
