<?xml version="1.0" encoding="utf-8"?>
<!-- Generator: Adobe Illustrator 24.0.0, SVG Export Plug-In . SVG Version: 6.00 Build 0)  -->
<svg version="1.1" xmlns="http://www.w3.org/2000/svg" xmlns:xlink="http://www.w3.org/1999/xlink" x="0px" y="0px"
	 viewBox="0 0 201 236" style="enable-background:new 0 0 201 236;" xml:space="preserve">
<style type="text/css">
	.st0{fill:#1E0734;}
	.st1{fill:#E898ED;}
	.st2{font-family:'WakingtheWitch';}
	.st3{font-size:21.9566px;}
	.st4{fill:none;}
	.st5{fill:#3C163D;}
	.st6{fill:#FFF95A;}
	.st7{fill:#00FF88;}
	.st8{fill:#568C5A;}
	.st9{fill:#E1825A;}
	.st10{fill:#9FE976;}
	.st11{fill:url(#SVGID_1_);}
	.st12{fill:#7E5F82;}
	.st13{fill:#110C23;}
	.st14{font-size:181.3851px;}
</style>
<g id="albus">
	<g id="CalqueB">
		<path class="st0" d="M22.6,227.8c0,0-1,4.5,9.8,3.7s33.5-2.2,39.4-1.5s14.8,0,14.8,0s5.9-1.5,7.9,0l-2-4.5l4.9,4.5
			c0,0,11.8-1.5,14.8,0s5.9-3,5.9-3s3.9,2.2,11.8,1.5s19.7,0,19.7,0s9.8-0.7,16.7,3s5.9-3,5.9-3s6.9-1.5,6.9-4.5s3.9-5.2,3.9-10.5
			s-3-6.7-3-6.7s-26.6,0-27.6,0s25.6-0.7,26.6-1.5c1-0.7,2-8.2,2-8.2s-17.7-6-23.6-6s24.6,3.7,24.6,3.7s2-10.5,1-10.5
			s-22.6,1.5-22.6,1.5l22.6-3c0,0,1-22.4-2-22.4s-16.7-1.5-16.7-1.5H181c0,0,4.9-13.4,2-14.2c-3-0.7-4.9-1.5-4.9-1.5
			s3.9-3.7,3.9-4.5s-1-9,0-17.2s0-15.7,0-15.7s-2-16.4-1-19.4s-7.9,0-7.9,0l8.9-4.5c0,0,2-12.7,0-14.2S138.7,61,138.7,61
			s-24.6,0-28.5,0s-13.8-3.7-22.6-3.7s-65,1.5-65,1.5l-1,3.7l-3.9,3c0,0,1.5-0.4,0.5,10.1c0,0,2,1.5,2,5.2c0,0-2,0.7-2,4.5
			s0,20.2,1,20.9s2,2.2,0,4.5c-2,2.2,3.9,9,3,11.2c-1,2.2-4.9,5.2-1,10.5c3.9,5.2,0,8.2,1,8.2s3,0.7,5.9,1.5s-9.8,0-9.8,5.2
			s-1,7.5,1,7.5s3,0,0,3s-1,10.5,3,12c3.9,1.5,1,8.2,1,8.2s3,3.7,0,5.2s1,3.7-1,6.7s4.9,6.7,3,14.2c0,0-7.9,1.5-6.9,4.5s3.9,0,3,6
			s38.4,9.7,43.3,9.7s-40.4-3.7-41.3-3.7S22.6,227.8,22.6,227.8z"/>
		<g>
			<g>
				<text transform="matrix(1 0 0 1 44.0183 214.5308)" class="st1 st2 st3">Albus Dumbledore</text>
			</g>
		</g>
	</g>
	<g id="CalqueA">
		<g>
			<path class="st4" d="M87.7,46.5c-3.7,0.8-6.9,4.8-9.3,8.3c-0.9,1.3,1.5,5,2.7,8.7c1.7,0,4.3,0.4,6.6-0.1c5.3-1,10.4-3.2,15.8-3.5
				c10.4-0.7,12.9-3.8,10.1-15.7C105,44.8,96.1,44.8,87.7,46.5z M83.2,52.5c7.5-0.5,15.1-0.9,23.3-1.4
				C101.4,56.8,86.8,57.2,83.2,52.5z"/>
			<path class="st4" d="M62.6,83.8c1.4-1.7,1.8-4.5,2.7-6.8c-2.8-0.9-6.1-3.2-8.3-2.4c-9.5,3.5-18.7,7.9-27.5,11.7
				c0.5,5.1,0.9,8.9,1.4,14.6c5.2-2.3,9.7-4.6,14.5-6.3c2.1-0.7,4.6-0.3,7-0.4l0,0C55.8,90.8,59.5,87.5,62.6,83.8z"/>
			<path class="st4" d="M83.4,97c0.6-4.4-2.2-8.3-4.9-9.3c-4.1-1.5-7.4,1.6-9,6.1c-0.7,2.1-2.4,3.7-4.7,7c1.5-6.9,2.6-11.6,3.6-16.4
				c-0.8-0.5-1.6-1-2.3-1.4c-4.3,6-8.5,12-12.8,18c2.4,2.6,4.7,5.2,7.2,7.9c8.2-1.6,11.6-16.2,23.4-7.4C83.6,99.4,83.2,98.2,83.4,97
				z"/>
			<path class="st4" d="M122.1,46.9C122.4,46.6,122.2,46.7,122.1,46.9L122.1,46.9z"/>
			<path class="st5" d="M85.4,109.1L85.4,109.1c-0.1-0.1-0.1-0.1-0.2-0.1L85.4,109.1z"/>
			<path class="st5" d="M106.5,51.1c-8.2,0.5-15.8,1-23.3,1.4C86.8,57.2,101.4,56.8,106.5,51.1z"/>
		</g>
	</g>
</g>
<g id="centipede_1_">
	<g id="centipede">
		<g>
			<g>
				<path class="st6" d="M157.6,210.4c0.2,0.1,0.2,0.3,0.3,0.4c0.1,0.5,1,2.6,3.1,3.8c0.2,0.1,0.3,0.4,0.2,0.7
					c-0.1,0.2-0.4,0.3-0.7,0.2c-2.5-1.4-3.8-4.4-3.6-4.9c0.1-0.1,0.2-0.2,0.3-0.2C157.3,210.4,157.4,210.4,157.6,210.4z"/>
				<path class="st6" d="M156.7,209.9c0.1,0.1,0.2,0.2,0.2,0.3s0,0.3,0,0.4c-0.2,0.3-3.5,2.6-6.3,1c-0.2-0.1-0.3-0.4-0.2-0.7
					c0.1-0.2,0.4-0.3,0.7-0.2c2.2,1.2,4.8-0.6,5-0.7l0.1-0.1C156.3,209.9,156.5,209.8,156.7,209.9z"/>
			</g>
			<circle class="st7" cx="156.7" cy="210.5" r="1.8"/>
			<path class="st8" d="M151.5,178v4.9c0,0.3,0.2,0.5,0.5,0.5c0.2,0,0.4-0.1,0.5-0.3c0.1,0,0.2-0.1,0.3-0.2l2.2-3.8
				c0.1-0.2,0.1-0.5-0.2-0.7c-0.2-0.1-0.5-0.1-0.7,0.2l-1.5,2.7v-3.2c0-0.2-0.1-0.4-0.3-0.4c-0.1,0-0.2-0.1-0.2-0.1
				C151.8,177.5,151.5,177.7,151.5,178z"/>
			<ellipse class="st9" cx="152.5" cy="181.4" rx="1.3" ry="1.3"/>
			<g>
				<path class="st8" d="M149.1,182.8l4.8,1.7c0.3,0.1,0.5,0,0.6-0.3c0.1-0.2,0-0.5-0.2-0.6c0,0,0,0-0.1,0l-4.8-1.7
					c-0.3-0.1-0.5,0-0.6,0.3C148.7,182.4,148.9,182.7,149.1,182.8z"/>
				<path class="st8" d="M153.6,185l-5-1c-0.3-0.1-0.5,0.1-0.6,0.4c-0.1,0.3,0.1,0.5,0.4,0.6l5,1c0.3,0.1,0.5-0.1,0.6-0.4
					c0-0.2-0.1-0.4-0.2-0.5C153.7,185,153.6,185,153.6,185z"/>
				<path class="st8" d="M153,186.7l-5.4-0.3c-0.3,0-0.5,0.2-0.5,0.5s0.2,0.5,0.5,0.5l5.4,0.3c0.3,0,0.5-0.2,0.5-0.5
					c0-0.2-0.1-0.4-0.3-0.5C153.2,186.7,153.1,186.7,153,186.7z"/>
				<path class="st8" d="M147,189.2c0,0.3,0.2,0.5,0.5,0.5l5.4-0.2c0.3,0,0.5-0.2,0.5-0.5c0-0.2-0.1-0.3-0.3-0.4
					c-0.1,0-0.2-0.1-0.3-0.1l-5.4,0.2C147.2,188.7,147,188.9,147,189.2z"/>
				<path class="st8" d="M147.7,191.3c-0.3,0.1-0.4,0.3-0.4,0.6c0.1,0.3,0.3,0.4,0.6,0.4l5-1.3c0.3-0.1,0.4-0.3,0.4-0.6
					c0-0.1-0.1-0.2-0.2-0.3c-0.1-0.1-0.2-0.1-0.4,0L147.7,191.3z"/>
				<path class="st8" d="M147.9,194.5c0.1,0.3,0.4,0.4,0.7,0.3l4.9-2.1c0.3-0.1,0.4-0.4,0.3-0.7c0-0.1-0.1-0.2-0.2-0.2
					c-0.1-0.1-0.3-0.1-0.4,0l-4.9,2.1C147.9,193.9,147.7,194.2,147.9,194.5z"/>
				<path class="st8" d="M149.1,196.6c0.1,0.2,0.4,0.3,0.7,0.2l4.8-2.7c0.2-0.1,0.3-0.4,0.2-0.7c0-0.1-0.1-0.1-0.2-0.2
					c-0.1-0.1-0.3-0.1-0.5,0l-4.8,2.7C149,196.1,149,196.4,149.1,196.6z"/>
				<path class="st8" d="M150.4,198.7c0.2,0.2,0.5,0.3,0.7,0.1l4.7-3.1c0.2-0.2,0.3-0.5,0.1-0.7c0-0.1-0.1-0.1-0.2-0.2
					c-0.2-0.1-0.4-0.1-0.5,0l-4.7,3.1C150.3,198.2,150.2,198.5,150.4,198.7z"/>
				<path class="st8" d="M151.7,200.4c0.1,0.2,0.4,0.3,0.7,0.2l4.9-2.7c0.2-0.1,0.3-0.4,0.2-0.7c0-0.1-0.1-0.1-0.2-0.2
					c-0.1-0.1-0.3-0.1-0.5,0l-4.9,2.7C151.7,199.8,151.6,200.1,151.7,200.4z"/>
				<path class="st8" d="M152.9,201.7c0.1,0.3,0.4,0.4,0.7,0.3l5.1-2.2c0.3-0.1,0.4-0.4,0.3-0.7c0-0.1-0.1-0.2-0.2-0.2
					c-0.1-0.1-0.3-0.1-0.4,0l-5.1,2.2C152.9,201.2,152.8,201.5,152.9,201.7z"/>
				<path class="st8" d="M153.5,203.2c0.1,0.3,0.4,0.4,0.6,0.3l5.6-1.6c0.3-0.1,0.4-0.4,0.3-0.6c0-0.1-0.1-0.2-0.2-0.3
					c-0.1-0.1-0.2-0.1-0.4,0l-5.6,1.6C153.6,202.7,153.5,203,153.5,203.2z"/>
				<path class="st8" d="M154,204.8c0,0.3,0.3,0.5,0.5,0.4l5.8-0.6c0.3,0,0.5-0.3,0.4-0.5c0-0.2-0.1-0.3-0.3-0.4
					c-0.1,0-0.2-0.1-0.3-0.1l-5.8,0.6C154.2,204.3,154,204.6,154,204.8z"/>
				<path class="st8" d="M154.2,206.3c0,0.3,0.2,0.5,0.5,0.5l5.6,0.3c0.3,0,0.5-0.2,0.5-0.5c0-0.2-0.1-0.4-0.3-0.5
					c-0.1,0-0.1-0.1-0.2-0.1l-5.6-0.3C154.4,205.9,154.2,206.1,154.2,206.3z"/>
				<path class="st8" d="M153.8,207.9c-0.1,0.3,0.1,0.5,0.4,0.6l5.5,1.2c0.3,0.1,0.5-0.1,0.6-0.4c0-0.2-0.1-0.4-0.2-0.5
					c0,0-0.1,0-0.1-0.1l-5.5-1.2C154.2,207.5,153.9,207.6,153.8,207.9z"/>
			</g>
			<path class="st10" d="M152.8,181.3c0.7,0.4,1,1.3,0.6,2c-3.4,6-1.6,9.9,2.6,14.8c2.8,3.2,3.6,7.1,2.5,11.6v0.2
				c-0.2,0.8-1,1.3-1.8,1.1s-1.3-1-1.1-1.8l0.1-0.2c0.3-1.3,1.3-5.2-1.9-8.9c-4.1-4.8-7.4-10.3-2.9-18.2
				C151.2,181.1,152.1,180.9,152.8,181.3z"/>
			<g>
				<path class="st6" d="M155.6,197.7c-0.2,0.3-0.9,1.2-2.7,1.4l0,0c0.2,0.3,0.5,0.6,0.7,0.9c1.4-0.3,2.3-1.1,2.6-1.5
					c-0.1-0.1-0.2-0.3-0.3-0.4S155.7,197.9,155.6,197.7z"/>
				<path class="st6" d="M155.8,204.2h-0.1c0.1,0.4,0.1,0.7,0.2,1.1c1.4,0.4,2.4,0.1,3-0.2c0-0.4-0.1-0.7-0.1-1.1
					C158.4,204.3,157.4,204.8,155.8,204.2z"/>
				<path class="st6" d="M156.9,199.5c0,0-0.7,1.3-2.7,1.2c0.2,0.3,0.4,0.6,0.6,1c1.5-0.1,2.3-0.9,2.7-1.3
					C157.3,200,157.1,199.7,156.9,199.5C156.9,199.4,156.9,199.5,156.9,199.5z"/>
				<path class="st6" d="M150.5,182.3c-0.2,0.3-0.3,0.6-0.5,0.9c1.1,0.9,2.1,1.1,2.8,1.2c0.2-0.3,0.3-0.7,0.5-1l0,0
					C153,183.4,152,183.4,150.5,182.3z"/>
				<path class="st6" d="M158.5,209.5c0.1-0.4,0.2-0.7,0.2-1.1c-0.3,0.1-1.5,0.4-2.9-0.7c-0.1,0.4-0.2,0.8-0.2,1.1
					C156.7,209.6,157.8,209.6,158.5,209.5z"/>
				<path class="st6" d="M155.9,206.1c0,0.4,0,0.8-0.1,1.1c1.1,0.5,2.3,0.3,3,0.1c0-0.4,0-0.7,0.1-1.1
					C158.4,206.4,157.1,206.7,155.9,206.1z"/>
				<path class="st6" d="M155.1,202.3c0.2,0.4,0.3,0.7,0.4,1c1.3,0.1,2.3-0.4,2.9-0.7c-0.1-0.3-0.2-0.7-0.3-1
					C157.6,201.9,156.6,202.5,155.1,202.3z"/>
				<path class="st6" d="M151.6,197.5c0.2,0.3,0.4,0.6,0.7,0.9c1.3-0.3,2.1-1.2,2.5-1.7c-0.2-0.3-0.4-0.6-0.6-0.9
					C154,196.1,153.3,197.3,151.6,197.5z"/>
				<path class="st6" d="M151.7,190.4c-0.2,0.2-1.2,1.1-2.9,0.7c0.1,0.4,0.1,0.7,0.2,1.1c1.3,0.2,2.4-0.3,2.9-0.7
					C151.8,191.1,151.7,190.7,151.7,190.4z"/>
				<path class="st6" d="M151.8,186.7c0,0-1.5,0.9-2.9-0.2c-0.1,0.4-0.1,0.7-0.2,1.1c1.1,0.6,2.2,0.5,3,0.3c0.1-0.4,0.1-0.8,0.2-1.2
					C151.9,186.7,151.9,186.7,151.8,186.7z"/>
				<path class="st6" d="M151.5,188.6c0,0-1.3,1-2.9,0.1c0,0.4,0,0.7,0,1.1c1.3,0.5,2.4,0.2,3-0.1
					C151.6,189.4,151.6,189,151.5,188.6C151.6,188.6,151.6,188.6,151.5,188.6z"/>
				<path class="st6" d="M149.6,184.3c-0.1,0.3-0.3,0.7-0.4,1c1.2,0.9,2.2,1,2.9,0.9c0.1-0.4,0.3-0.8,0.5-1.2c0,0,0,0-0.1,0
					C152.5,185,151.3,185.7,149.6,184.3z"/>
				<path class="st6" d="M150.3,195.4c0.2,0.3,0.4,0.6,0.6,0.9c1.3-0.2,2.2-1,2.6-1.5c-0.2-0.3-0.4-0.6-0.6-0.9
					C152.7,194.3,151.9,195.4,150.3,195.4z"/>
				<path class="st6" d="M149.3,193.3c0.1,0.3,0.2,0.7,0.4,1c1.4-0.1,2.3-0.7,2.8-1.1c-0.1-0.3-0.3-0.7-0.4-1
					C151.9,192.3,151,193.2,149.3,193.3z"/>
			</g>
		</g>
	</g>
</g>
<g id="cardA">
	
		<linearGradient id="SVGID_1_" gradientUnits="userSpaceOnUse" x1="102.2375" y1="246.9304" x2="100.2928" y2="34.9599" gradientTransform="matrix(1 0 0 -1 0 238)">
		<stop  offset="0" style="stop-color:#F098BC"/>
		<stop  offset="1" style="stop-color:#451A40"/>
	</linearGradient>
	<path class="st11" d="M10.8,9.3c0,0-4.9-1.1-4.1,10.8s2.4,36.6,1.6,43s0,16.1,0,16.1s1.6,6.5,0,8.6l4.9-2.2L8.4,91
		c0,0,1.6,12.9,0,16.1s3.3,6.5,3.3,6.5s-2.4,4.3-1.6,12.9s0,21.5,0,21.5s0.8,10.8-3.3,18.3s3.3,6.5,3.3,6.5s1.6,7.5,4.9,7.5
		s5.7,4.3,11.4,4.3s7.3-3.2,7.3-3.2s0-29,0-30.1s0.8,28,1.6,29s9,2.2,9,2.2s6.5-19.4,6.5-25.8c0-6.5-4.1,26.9-4.1,26.9
		s11.4,2.2,11.4,1.1S56.5,160,56.5,160l3.3,24.7c0,0,24.5,1.1,24.5-2.2c0-3.2,1.6-18.3,1.6-18.3v18.3c0,0,14.7,5.4,15.5,2.2
		s1.6-5.4,1.6-5.4s4.1,4.3,4.9,4.3s9.8-1.1,18.8,0s17.1,0,17.1,0s18-2.2,21.2-1.1c3.3,1.1,0-8.6,0-8.6l4.9,9.7c0,0,13.9,2.2,15.5,0
		s7.3-47.3,7.3-47.3s0-26.9,0-31.2s4.1-15.1,4.1-24.7s-1.6-71-1.6-71l-4.1-1.1L188,3.9c0,0,0.4,1.6-11,0.5c0,0-1.6,2.2-5.7,2.2
		c0,0-0.8-2.2-4.9-2.2s-22,0-22.9,1.1s-2.4,2.2-4.9,0s-9.8,4.3-12.2,3.2s-5.7-5.4-11.4-1.1s-9,0-9,1.1s-0.8,3.2-1.6,6.5
		c-0.8,3.2,0-10.8-5.7-10.8s-8.2-1.1-8.2,1.1s0,3.2-3.3,0S75.8,4.4,74.1,8.7c-1.6,4.3-9,1.1-9,1.1s-4.1,3.2-5.7,0s-4.1,1.1-7.3-1.1
		s-7.3,5.4-15.5,3.2c0,0-1.6-8.6-4.9-7.5s0,4.3-6.5,3.2S14.5,49.6,14.5,55s4.1-44.1,4.1-45.2S10.8,9.3,10.8,9.3z"/>
	<path class="st12" d="M145.8,24.6c-2,2.4-3.6,5.7-6.2,6.8c-3.5,1.5-7.7,1.2-11.7,1.7c1.1-5.1,2.1-10,2.9-13.7
		c10-5.3,19.3-10.1,28.6-14.9c-1.3,0-2.7,0-4.2,0.1c-8.3,1.7-16.6,3.5-24.8,5.2c-0.1-0.6-0.3-1.1-0.4-1.7c-1.4,0.7-2.7,1.1-3.5,0.7
		c-0.1,0-0.1-0.1-0.2-0.1c-0.6,1.5-1.1,3.1-1.3,5c-2.8-0.6-5-1.1-8.3-1.8c0.8-2,1.7-4,2.5-6C118,6,116.6,6.5,115,7.7
		c-5.7,4.3-9,0-9,1.1c0,0.2,0,0.3,0,0.5c4.9,3.4,5.9,7.1,4.1,14.6c1.2,0.2,2.3,0.4,3.9,0.7c-2.1,3.1-3.8,5.8-6.5,9.8
		c-1-5.7-1.7-10.2-2.4-14.6c-0.3,0-0.5,0-0.8-0.1c-0.7,6-1.5,11.9-2.2,17.9c-0.5,0-1-0.1-1.4-0.1c-0.6-5.6-1.3-11.3-1.9-17
		c-1,5.2-1.9,10.5-3.2,15.6c-0.5,1.8-2.3,4.6-3.3,4.4c-1.8-0.2-3.4-2.4-5.2-3.7c-0.3-0.3-0.7-0.5-1.1-0.7c-0.6,1.2-1.2,2.3-2.1,4.1
		c-0.6-2-1-3.3-1.6-5.2c-1.5,1.9-2.5,3.9-4,5c-7.4,5.4-4.3,21-18.1,20c-0.3,0-0.7,0.6-0.9,1c-2.1,5.8-6.5,5.3-10.5,2.6
		c-2.6-1.8-4.2-5.2-6.8-8.7c-1.5,1.8-3.7,4.4-5.8,6.9c3.6,4.1,6.6,7.6,9.6,11.1c-8.7-4.9-15.5-13.3-27-12.3c7.3,4.2,9.8,6,9.8,8
		c-4.5-2.1-8.9-4.1-13.2-6.1c-0.5,0.6-0.9,1.2-1.4,1.8c3.5,4.5,7,9,10.5,13.5c-0.5,0.2-2.6,0.9-4.4,1.5c-2.8-5.4-4.7-11.6-8.6-15.6
		c-0.9-1-2-1.8-3.1-2.5c0,0.7-0.1,1.3-0.1,1.8c-0.8,6.5,0,16.1,0,16.1s1.6,6.5,0,8.6l4.9-2.2L8.4,91c0,0,0.3,2.3,0.5,5.1
		c0.8-0.9,1.5-1.8,2.3-2.7c0.5,0.5,1,1,1.5,1.4c-1.1,1.2-2.2,2.5-3.4,3.7c0.3,0.3,0.5,0.7,0.8,1c4.2-3.1,8.4-6.3,12.7-9.4
		c0.2,0.3,0.5,0.5,0.7,0.8c-3.9,4-7.8,8-11.6,12c0.6,0.7,1.2,1.4,1.8,2.1c2-1.8,4.1-3.5,6.1-5.3c2.5-2.1,4.7-2.8,6.8,1.2
		c1,1.9,3.2,5,4.4,4.8c4.2-0.7,8.2-2.5,12.1-3.8c-0.6,3.6-1.3,8.3-2.2,13.8c4.3-8,7.9-14.7,11.5-21.4c0.3,2.2,0.5,4.4,0.8,6.6
		c0-0.1,0.1-0.1,0.1-0.2c1.9,3.4,3.1,8.2,5.9,9.6c2.5,1.3,7.9,0.2,9.9-2c5.7-6.2,10.7-3.4,16.2,0.4c3.8-0.4,8.1,0.2,11.4-1.3
		l-3.2-2.3c1.4-9.2,1.3-16.1-4.6-22.7c-3-3.3-1-5.3,2.9-5.1c3.8,0.2,7.5,0.7,11.3,1c0.2-0.6,0.3-1.2,0.5-1.8
		c-5-3.3-15.6,2.3-15.2-9.7c10.6-2.6,10.6-2.6,15.5,7.8c4.5-2.5,9.6-9.9,13.1,2c5.5-4.8,9.9-9.8,8.2-17.3c-0.5-2.2-5.7-3.3-6.5-5.6
		c-0.6-1.7,1.9-4.5,3.3-6.8c7.2-0.3,12.9-0.5,19.7-0.7c-2-2.9-3.8-5.6-5.7-8.3c4-3.8,8-7.7,12-11.5
		C147.2,26.1,146.5,25.3,145.8,24.6z M65.3,61.2c2.3,3,4.7,5.9,7.9,10c-6.6,0-11.1,0.1-15.6,0.1c-0.4-0.6-0.7-1.2-1.1-1.8
		C59.4,66.7,62.3,64,65.3,61.2z M52.3,94.2C52.3,94.2,52.3,94.3,52.3,94.2c-2.3,0.1-4.9-0.3-6.9,0.4c-4.7,1.7-9.3,4-14.5,6.3
		c-0.6-5.7-0.9-9.5-1.4-14.6c8.8-3.8,18-8.2,27.5-11.7c2.1-0.8,5.5,1.5,8.3,2.4c-0.9,2.3-1.2,5-2.7,6.8
		C59.5,87.5,55.8,90.8,52.3,94.2z M60.4,108.9c-2.5-2.7-4.8-5.3-7.2-7.9c4.3-6,8.5-12,12.8-18c0.8,0.5,1.6,1,2.3,1.4
		c-1,4.8-2.1,9.5-3.6,16.4c2.3-3.3,4-4.9,4.7-7c1.6-4.5,4.8-7.6,9-6.1c2.7,1,5.5,4.9,4.9,9.3c-0.2,1.1,0.2,2.4,0.5,4.4
		C72,92.7,68.6,107.3,60.4,108.9z M87.1,105.2c-0.1-4.5-0.2-9.1-0.3-13.5C90.1,93,90.1,93,87.1,105.2z M103.5,59.8
		c-5.3,0.4-10.5,2.5-15.8,3.5c-2.3,0.4-4.9,0.1-6.6,0.1c-1.2-3.6-3.6-7.4-2.7-8.7c2.3-3.4,5.6-7.5,9.3-8.3
		c8.4-1.8,17.3-1.7,25.9-2.4C116.3,56,113.8,59.1,103.5,59.8z M119.5,59.3c0.8,0.2,1.7,0.4,2.5,0.7c-0.9,4.3-1.7,8.5-2.8,14
		C112,66.5,117.6,63.3,119.5,59.3z M122.1,46.9C122.2,46.7,122.4,46.6,122.1,46.9L122.1,46.9z"/>
	<text transform="matrix(1 0 0 1 66.0006 167.9616)" class="st13 st2 st14">A</text>
</g>
</svg>
