<svg xmlns="http://www.w3.org/2000/svg" viewBox="0 0 204.66 319.06"><title>vision</title><g id="Calque_2" data-name="Calque 2"><g id="menubg"><path d="M67.31,10.87c-6.34,31.53.22,63,.62,94.5.26,19.79-4.4,39-5.35,59.07-4.68-.94-7-4.74-9.23-8.14C49,149.64,45.06,142.65,41,135.81c-3.65-6.05-7.77-11.76-14.25-15-2.52-1.26-6-3.49-8.22-.64-1.89,2.47,1.37,4.71,3,6.62C37,145.45,40.3,169.06,47.24,191.12c5.37,17.08,9.6,34,20.45,49.3,9.69,13.65,7.18,31.43,6.4,47.66-.9,18.59.26,20.5,19.29,21.79,9.3.63,18.58,1.39,27.89,1.76,3.85.15,7.38-.72,6.71-6.19-4.25-34.53,3.82-67.4,13.07-100.24,6.52-23.17,3.89-47.81,10.06-71.07,3.66-13.8,8.44-27.3,12.57-41,1.21-4,2.73-8.09-.24-14.48-3.8,9.3-6.9,17-10.14,24.75-3.48,8.28-7,16.53-10.68,24.73-.91,2-1.89,4.7-4.81,4.28s-3.11-3.28-3.63-5.44c-1.57-6.59-.52-13.25-.08-19.88,1.38-20.6,3.84-41.16,2.81-61.86-.28-5.65,1.27-14.36-6.3-14.54-5.72-.13-4.4,8.41-5.08,13.3-3,21.77-5.21,43.63-6.32,65.6-.2,3.86.06,8.1-4,10.59Q118.58,82,122,43.75a40.83,40.83,0,0,1,1.1-6.9c1.25-4.67,1.37-11.1,8.29-10.36,5.81.62,7.82,5.91,8.05,11.17a536.63,536.63,0,0,1-1,58.94c-.67,9.8-.11,19.68-.11,32.09,7.79-13.57,11.91-26.34,17-38.62,1.16-2.76,1.87-5.72,3.2-8.38,1.51-3,3.74-6.17,7.64-4.71,3.45,1.28,3,4.78,2.41,7.82-1,4.88-1.41,10-3.24,14.58a234,234,0,0,0-16.72,78.69,131.17,131.17,0,0,1-6,33.34c-9.54,30.61-13.77,61.7-10.93,93.63.64,7.09-2.36,10-8.73,10.15-15.72.4-31.25-.89-46.33-5.77-6.39-2.06-8.84-5.67-7.24-12.69,2.76-12.14,1.85-24.49.64-36.8a46,46,0,0,0-10-24.54c-8.43-10.76-11.16-24-14.88-36.79-3-10.22-5.33-20.63-8.34-30.84-4.25-14.39-8.83-28.66-18.6-40.57-2.26-2.75-5.17-5.94-1.59-9.61,3-3.11,6.85-2.23,10.25-.7,6.92,3.12,11.53,8.79,15.84,14.82,5.36,7.5,8.65,16.46,16.42,23.67,6-24.65,6.84-48.58,5.26-72.85-1.32-20.19-5-40.41-1.15-60.74C64,17.88,64.05,13.8,67.31,10.87Z"/><path d="M105.38,8.15c-3-.59-2.65-6.08-6.52-5-4.23,1.23-4.27,5.47-5.08,8.93-6.7,28.67-1.35,57.53-1.28,86.3,0,6.62,1.12,13.24,1.31,19.87.1,3.54.29,8.42-4.38,8.78-5,.4-6-4.22-6.35-8.39C81.85,103.13,80.5,87.58,79.49,72c-1.08-16.57-1.84-33.16-2.67-49.75-.3-6-1.17-11.43-8.69-12.22,8.63-5,10.71.84,11.3,7.4,1.06,11.61,1.4,23.28,2.16,34.92Q83.69,84.24,86,116.1c.18,2.61.56,5.26,3.56,7.47,2.77-4,1.61-8.29,1.23-12.26-2.19-22.56-3-45.19-3.9-67.83-.47-12.17,2.49-23.8,4.49-35.59.72-4.2,3-7.77,7.7-7.89C104.31-.12,105.54,3.64,105.38,8.15Z"/><path d="M159.76,314.22c8.62-8.87,17.7-13.25,29-7.2-7.12,9.24-24.88,14.61-35.56,10.81-4.15-1.47-3.75-5.11-4-8.29-.44-7,3.6-18.39,9.44-27.19C163.51,292.67,158.67,303.06,159.76,314.22Z"/><path d="M44.37,312.63c2.75-10.9-1.62-20.62,2.57-30.85,5.73,9.22,9,18.33,9.69,28.2.39,5.36-2,7.65-8.26,8.12-12.34.91-22.84-2-33-10.5C26.27,301.71,35.17,304.31,44.37,312.63Z"/><path d="M0,256.31c13.91-.28,18.6,11.16,26.4,18.6,5.38-6.34,5.46-15.63,12.47-21.63a27,27,0,0,1,1.2,18.93c-2.63,9.05-7,10.12-15.75,6.94C13.1,275.08,4.19,269.19,0,256.31Z"/><path d="M166.46,253.39c7.43,6.32,7.39,15.3,11.29,23.33,6-5.76,9.4-13.25,16.25-17.22,3-1.77,7-5.07,9.83-2.12,2.58,2.68-1.54,5.77-3.1,8.44-5.67,9.69-16.76,11.22-25.45,16.31-3,1.75-5.32-2-7-4.24C162.76,270.56,163.17,262.51,166.46,253.39Z"/><path d="M115.42,120c-5,4.61-7.29,4.26-8.42-2-1-5.48-.92-11.18-1-16.79q-.5-46.65-.81-93.31c4.3,7.23,3.08,15.39,3.31,23.1.75,25.81.72,51.64,1.24,77.46C109.86,112.82,107.85,118.9,115.42,120Z"/><path d="M166.5,229.73c13.5,19.12,19.45,3.13,27.59-2.9.37,10-6.54,19.52-14.36,18.93C172.85,245.24,167.57,241.29,166.5,229.73Z"/><path d="M39,232c-1.46,9.25-7,14.06-12.84,13.71-9.28-.55-13.91-8.29-16.81-17.78,4.6.26,7.6,2.45,9.17,5.46,4.16,8,8.75,8.61,14.76,2.05C34.36,234.29,36.06,233.75,39,232Z"/><path d="M25.76,228.84c-6.41-9-8.19-17.12-3.8-27.8C25.75,210.66,31.61,218.19,25.76,228.84Z"/><path d="M183.68,202c2.94,8.34,2.47,14.39,0,20.34-.75,1.79-1.48,4.31-3.71,4.06-3.17-.35-2.43-3.45-2.56-5.56C177.05,214.46,179.4,208.92,183.68,202Z"/><path d="M85.67,165.62a7.11,7.11,0,0,1,6.89-4.71c13.27,1.1,11-7.79,10.66-15.58-.09-2.33-3.41-4.88.35-6.89a2.89,2.89,0,0,1,2.7.28c2.57,2.62-.76,4.85-.69,7.13.18,6.61-4.68,15.65,8.91,16.18,5.11.2,10.44,5.51,14.9,9.39,9.3,8.08,8.5,9.23-1.28,16.82-10.19,7.9-20.57,8.25-33,7.29-12-.92-16.73-10.22-25.27-14.74-2.78-1.46-1.14-3.24.27-4.67,4.52-4.57,8.33-10.23,15.68-10.63-.68,3.9-4.53,4.57-7,6.59-5.2,4.32-6.1,7.5.22,12.06,12.48,9,25.83,9.65,39.75,5.33,4.63-1.44,11.16-4.07,11.48-8.54.4-5.64-5.64-9.07-11.22-12.09-.19,2.08-.19,3.71-.5,5.27-2,9.77-8.39,15.07-17.71,14.72-8-.31-12.7-6.11-13.65-16.52A49.29,49.29,0,0,0,85.67,165.62Z"/></g></g></svg>